%TF.GenerationSoftware,KiCad,Pcbnew,8.0.6*%
%TF.CreationDate,2024-12-04T22:19:36+00:00*%
%TF.ProjectId,prototype_routed,70726f74-6f74-4797-9065-5f726f757465,v1.0.0*%
%TF.SameCoordinates,Original*%
%TF.FileFunction,Copper,L1,Top*%
%TF.FilePolarity,Positive*%
%FSLAX46Y46*%
G04 Gerber Fmt 4.6, Leading zero omitted, Abs format (unit mm)*
G04 Created by KiCad (PCBNEW 8.0.6) date 2024-12-04 22:19:36*
%MOMM*%
%LPD*%
G01*
G04 APERTURE LIST*
G04 Aperture macros list*
%AMRotRect*
0 Rectangle, with rotation*
0 The origin of the aperture is its center*
0 $1 length*
0 $2 width*
0 $3 Rotation angle, in degrees counterclockwise*
0 Add horizontal line*
21,1,$1,$2,0,0,$3*%
%AMOutline5P*
0 Free polygon, 5 corners , with rotation*
0 The origin of the aperture is its center*
0 number of corners: always 5*
0 $1 to $10 corner X, Y*
0 $11 Rotation angle, in degrees counterclockwise*
0 create outline with 5 corners*
4,1,5,$1,$2,$3,$4,$5,$6,$7,$8,$9,$10,$1,$2,$11*%
%AMOutline6P*
0 Free polygon, 6 corners , with rotation*
0 The origin of the aperture is its center*
0 number of corners: always 6*
0 $1 to $12 corner X, Y*
0 $13 Rotation angle, in degrees counterclockwise*
0 create outline with 6 corners*
4,1,6,$1,$2,$3,$4,$5,$6,$7,$8,$9,$10,$11,$12,$1,$2,$13*%
%AMOutline7P*
0 Free polygon, 7 corners , with rotation*
0 The origin of the aperture is its center*
0 number of corners: always 7*
0 $1 to $14 corner X, Y*
0 $15 Rotation angle, in degrees counterclockwise*
0 create outline with 7 corners*
4,1,7,$1,$2,$3,$4,$5,$6,$7,$8,$9,$10,$11,$12,$13,$14,$1,$2,$15*%
%AMOutline8P*
0 Free polygon, 8 corners , with rotation*
0 The origin of the aperture is its center*
0 number of corners: always 8*
0 $1 to $16 corner X, Y*
0 $17 Rotation angle, in degrees counterclockwise*
0 create outline with 8 corners*
4,1,8,$1,$2,$3,$4,$5,$6,$7,$8,$9,$10,$11,$12,$13,$14,$15,$16,$1,$2,$17*%
%AMFreePoly0*
4,1,6,0.600000,-1.000000,0.000000,-0.400000,-0.600000,-1.000000,-0.600000,0.250000,0.600000,0.250000,0.600000,-1.000000,0.600000,-1.000000,$1*%
%AMFreePoly1*
4,1,6,0.600000,-0.200000,0.600000,-0.400000,-0.600000,-0.400000,-0.600000,-0.200000,0.000000,0.400000,0.600000,-0.200000,0.600000,-0.200000,$1*%
G04 Aperture macros list end*
%TA.AperFunction,SMDPad,CuDef*%
%ADD10R,0.900000X1.200000*%
%TD*%
%TA.AperFunction,SMDPad,CuDef*%
%ADD11R,0.800000X1.000000*%
%TD*%
%TA.AperFunction,SMDPad,CuDef*%
%ADD12R,1.500000X0.700000*%
%TD*%
%TA.AperFunction,SMDPad,CuDef*%
%ADD13RotRect,0.900000X1.200000X165.000000*%
%TD*%
%TA.AperFunction,SMDPad,CuDef*%
%ADD14FreePoly0,270.000000*%
%TD*%
%TA.AperFunction,ComponentPad*%
%ADD15O,1.750000X1.200000*%
%TD*%
%TA.AperFunction,SMDPad,CuDef*%
%ADD16FreePoly1,270.000000*%
%TD*%
%TA.AperFunction,SMDPad,CuDef*%
%ADD17RotRect,0.900000X1.200000X150.000000*%
%TD*%
%TA.AperFunction,ComponentPad*%
%ADD18C,1.700000*%
%TD*%
%TA.AperFunction,SMDPad,CuDef*%
%ADD19R,0.600000X1.200000*%
%TD*%
%TA.AperFunction,ComponentPad*%
%ADD20C,0.800000*%
%TD*%
%TA.AperFunction,ComponentPad*%
%ADD21C,1.900000*%
%TD*%
%TA.AperFunction,SMDPad,CuDef*%
%ADD22Outline5P,-1.300000X1.300000X1.300000X1.300000X1.300000X-0.117000X0.117000X-1.300000X-1.300000X-1.300000X0.000000*%
%TD*%
%TA.AperFunction,SMDPad,CuDef*%
%ADD23R,2.000000X2.600000*%
%TD*%
%TA.AperFunction,SMDPad,CuDef*%
%ADD24Outline5P,-1.300000X1.300000X1.300000X1.300000X1.300000X-0.117000X0.117000X-1.300000X-1.300000X-1.300000X330.000000*%
%TD*%
%TA.AperFunction,SMDPad,CuDef*%
%ADD25RotRect,2.000000X2.600000X330.000000*%
%TD*%
%TA.AperFunction,SMDPad,CuDef*%
%ADD26Outline5P,-1.300000X1.300000X1.300000X1.300000X1.300000X-0.117000X0.117000X-1.300000X-1.300000X-1.300000X345.000000*%
%TD*%
%TA.AperFunction,SMDPad,CuDef*%
%ADD27RotRect,2.000000X2.600000X345.000000*%
%TD*%
%TA.AperFunction,ViaPad*%
%ADD28C,0.600000*%
%TD*%
%TA.AperFunction,Conductor*%
%ADD29C,0.200000*%
%TD*%
%TA.AperFunction,Conductor*%
%ADD30C,0.250000*%
%TD*%
G04 APERTURE END LIST*
D10*
%TO.P,D7,1*%
%TO.N,R2*%
X188662500Y-160662501D03*
%TO.P,D7,2*%
%TO.N,ring_bottom*%
X185362500Y-160662499D03*
%TD*%
D11*
%TO.P,PWR1,*%
%TO.N,*%
X271427498Y-149812500D03*
X271427499Y-142512500D03*
X273637499Y-142512500D03*
X273637499Y-149812500D03*
D12*
%TO.P,PWR1,1*%
%TO.N,N/C*%
X270777499Y-148412500D03*
%TO.P,PWR1,2*%
%TO.N,RAW*%
X270777499Y-145412500D03*
%TO.P,PWR1,3*%
%TO.N,BAT_P*%
X270777499Y-143912500D03*
%TD*%
D10*
%TO.P,D14,1*%
%TO.N,R1*%
X226662500Y-136662500D03*
%TO.P,D14,2*%
%TO.N,index_home*%
X223362500Y-136662498D03*
%TD*%
%TO.P,D11,1*%
%TO.N,R1*%
X207662499Y-131662501D03*
%TO.P,D11,2*%
%TO.N,middle_home*%
X204362499Y-131662499D03*
%TD*%
%TO.P,D12,1*%
%TO.N,R0*%
X207662501Y-112662501D03*
%TO.P,D12,2*%
%TO.N,middle_top*%
X204362501Y-112662499D03*
%TD*%
D13*
%TO.P,D19,1*%
%TO.N,R3*%
X227312183Y-177919179D03*
%TO.P,D19,2*%
%TO.N,layer_cluster*%
X224124627Y-177065079D03*
%TD*%
D10*
%TO.P,D8,1*%
%TO.N,R1*%
X188662500Y-141662501D03*
%TO.P,D8,2*%
%TO.N,ring_home*%
X185362500Y-141662499D03*
%TD*%
%TO.P,D9,1*%
%TO.N,R0*%
X188662500Y-122662501D03*
%TO.P,D9,2*%
%TO.N,ring_top*%
X185362500Y-122662499D03*
%TD*%
%TO.P,D5,1*%
%TO.N,R1*%
X169662501Y-146662501D03*
%TO.P,D5,2*%
%TO.N,pinky_home*%
X166362501Y-146662499D03*
%TD*%
%TO.P,D16,1*%
%TO.N,R2*%
X245662500Y-158162500D03*
%TO.P,D16,2*%
%TO.N,indexfar_bottom*%
X242362500Y-158162498D03*
%TD*%
D14*
%TO.P,JST1,1*%
%TO.N,BAT_P*%
X259928499Y-151162499D03*
%TO.P,JST1,2*%
%TO.N,GND*%
X259928499Y-149162499D03*
D15*
%TO.P,JST1,11*%
%TO.N,JST1_1*%
X257112499Y-151162499D03*
%TO.P,JST1,12*%
%TO.N,JST1_2*%
X257112499Y-149162499D03*
D16*
%TO.P,JST1,21*%
%TO.N,JST1_1*%
X258912499Y-151162500D03*
%TO.P,JST1,22*%
%TO.N,JST1_2*%
X258912499Y-149162499D03*
%TD*%
D17*
%TO.P,D20,1*%
%TO.N,R3*%
X245892108Y-185967238D03*
%TO.P,D20,2*%
%TO.N,space_cluster*%
X243034224Y-184317240D03*
%TD*%
D10*
%TO.P,D18,1*%
%TO.N,R0*%
X245662499Y-120162500D03*
%TO.P,D18,2*%
%TO.N,indexfar_top*%
X242362499Y-120162498D03*
%TD*%
%TO.P,D15,1*%
%TO.N,R0*%
X226662500Y-117662500D03*
%TO.P,D15,2*%
%TO.N,index_top*%
X223362500Y-117662498D03*
%TD*%
%TO.P,D6,1*%
%TO.N,R0*%
X169662500Y-127662500D03*
%TO.P,D6,2*%
%TO.N,pinky_top*%
X166362500Y-127662498D03*
%TD*%
%TO.P,D13,1*%
%TO.N,R2*%
X226662499Y-155662501D03*
%TO.P,D13,2*%
%TO.N,index_bottom*%
X223362499Y-155662499D03*
%TD*%
D18*
%TO.P,RST1,1*%
%TO.N,RST*%
X267362500Y-141162500D03*
%TO.P,RST1,2*%
%TO.N,GND*%
X260862500Y-141162500D03*
%TD*%
D10*
%TO.P,D1,1*%
%TO.N,R2*%
X150662500Y-165662501D03*
%TO.P,D1,2*%
%TO.N,outer_bottom*%
X147362500Y-165662499D03*
%TD*%
%TO.P,D2,1*%
%TO.N,R1*%
X150662500Y-146662502D03*
%TO.P,D2,2*%
%TO.N,outer_home*%
X147362500Y-146662500D03*
%TD*%
%TO.P,D4,1*%
%TO.N,R2*%
X169662501Y-165662501D03*
%TO.P,D4,2*%
%TO.N,pinky_bottom*%
X166362501Y-165662499D03*
%TD*%
%TO.P,D10,1*%
%TO.N,R2*%
X207662499Y-150662501D03*
%TO.P,D10,2*%
%TO.N,middle_bottom*%
X204362499Y-150662499D03*
%TD*%
%TO.P,D17,1*%
%TO.N,R1*%
X245662500Y-139162502D03*
%TO.P,D17,2*%
%TO.N,indexfar_home*%
X242362500Y-139162500D03*
%TD*%
%TO.P,D3,1*%
%TO.N,R0*%
X150662500Y-127662501D03*
%TO.P,D3,2*%
%TO.N,outer_top*%
X147362500Y-127662499D03*
%TD*%
D18*
%TO.P,MCU1,1*%
%TO.N,MCU1_1*%
X271732500Y-108462500D03*
%TO.P,MCU1,2*%
%TO.N,MCU1_2*%
X271732500Y-111002499D03*
%TO.P,MCU1,3*%
%TO.N,MCU1_3*%
X271732500Y-113542500D03*
%TO.P,MCU1,4*%
%TO.N,MCU1_4*%
X271732500Y-116082500D03*
%TO.P,MCU1,5*%
%TO.N,C0*%
X271732500Y-118622500D03*
%TO.P,MCU1,6*%
%TO.N,C1*%
X271732500Y-121162500D03*
%TO.P,MCU1,7*%
%TO.N,C2*%
X271732500Y-123702499D03*
%TO.P,MCU1,8*%
%TO.N,C3*%
X271732500Y-126242500D03*
%TO.P,MCU1,9*%
%TO.N,C4*%
X271732500Y-128782500D03*
%TO.P,MCU1,10*%
%TO.N,C5*%
X271732500Y-131322500D03*
%TO.P,MCU1,11*%
%TO.N,P16*%
X271732500Y-133862500D03*
%TO.P,MCU1,12*%
%TO.N,P10*%
X271732500Y-136402500D03*
%TO.P,MCU1,13*%
%TO.N,P9*%
X256492499Y-136402500D03*
%TO.P,MCU1,14*%
%TO.N,R3*%
X256492500Y-133862500D03*
%TO.P,MCU1,15*%
%TO.N,R2*%
X256492500Y-131322501D03*
%TO.P,MCU1,16*%
%TO.N,R1*%
X256492500Y-128782500D03*
%TO.P,MCU1,17*%
%TO.N,R0*%
X256492500Y-126242500D03*
%TO.P,MCU1,18*%
%TO.N,P4*%
X256492500Y-123702500D03*
%TO.P,MCU1,19*%
%TO.N,P3*%
X256492500Y-121162500D03*
%TO.P,MCU1,20*%
%TO.N,P2*%
X256492500Y-118622501D03*
%TO.P,MCU1,21*%
%TO.N,MCU1_21*%
X256492500Y-116082500D03*
D19*
X258632500Y-116082500D03*
%TO.N,MCU1_4*%
X269592501Y-116082499D03*
D18*
%TO.P,MCU1,22*%
%TO.N,MCU1_22*%
X256492500Y-113542500D03*
D19*
X258632500Y-113542500D03*
%TO.N,MCU1_3*%
X269592500Y-113542500D03*
D18*
%TO.P,MCU1,23*%
%TO.N,MCU1_23*%
X256492500Y-111002500D03*
D19*
X258632500Y-111002500D03*
%TO.N,MCU1_2*%
X269592500Y-111002500D03*
D18*
%TO.P,MCU1,24*%
%TO.N,MCU1_24*%
X256492500Y-108462500D03*
D19*
X258632500Y-108462500D03*
%TO.N,MCU1_1*%
X269592500Y-108462500D03*
D20*
%TO.P,MCU1,101*%
%TO.N,P1*%
X267512500Y-108462500D03*
D19*
X268692500Y-108462500D03*
D20*
%TO.P,MCU1,102*%
%TO.N,P0*%
X267512500Y-111002500D03*
D19*
X268692501Y-111002499D03*
D20*
%TO.P,MCU1,103*%
%TO.N,GND*%
X267512500Y-113542500D03*
D19*
X268692500Y-113542499D03*
D20*
%TO.P,MCU1,104*%
X267512500Y-116082500D03*
D19*
X268692500Y-116082501D03*
%TO.P,MCU1,121*%
%TO.N,VCC*%
X259532500Y-116082500D03*
D20*
X260712500Y-116082499D03*
D19*
%TO.P,MCU1,122*%
%TO.N,RST*%
X259532501Y-113542500D03*
D20*
X260712501Y-113542500D03*
D19*
%TO.P,MCU1,123*%
%TO.N,GND*%
X259532500Y-111002500D03*
D20*
X260712500Y-111002500D03*
D19*
%TO.P,MCU1,124*%
%TO.N,RAW*%
X259532500Y-108462500D03*
D20*
X260712500Y-108462500D03*
%TD*%
D21*
%TO.P,S11,*%
%TO.N,*%
X201012500Y-131812501D03*
X211012500Y-131812501D03*
D22*
%TO.P,S11,1*%
%TO.N,C3*%
X209287500Y-120712501D03*
D23*
%TO.P,S11,2*%
%TO.N,middle_home*%
X198037500Y-122912501D03*
%TD*%
D21*
%TO.P,S16,*%
%TO.N,*%
X239012500Y-158312499D03*
X249012500Y-158312499D03*
D22*
%TO.P,S16,1*%
%TO.N,C5*%
X247287500Y-147212499D03*
D23*
%TO.P,S16,2*%
%TO.N,indexfar_bottom*%
X236037500Y-149412499D03*
%TD*%
D21*
%TO.P,S14,*%
%TO.N,*%
X220012499Y-136812499D03*
X230012499Y-136812499D03*
D22*
%TO.P,S14,1*%
%TO.N,C4*%
X228287499Y-125712499D03*
D23*
%TO.P,S14,2*%
%TO.N,index_home*%
X217037499Y-127912499D03*
%TD*%
D21*
%TO.P,S13,*%
%TO.N,*%
X220012500Y-155812500D03*
X230012500Y-155812500D03*
D22*
%TO.P,S13,1*%
%TO.N,C4*%
X228287500Y-144712500D03*
D23*
%TO.P,S13,2*%
%TO.N,index_bottom*%
X217037500Y-146912500D03*
%TD*%
D21*
%TO.P,S4,*%
%TO.N,*%
X163012500Y-165812500D03*
X173012500Y-165812500D03*
D22*
%TO.P,S4,1*%
%TO.N,C1*%
X171287500Y-154712500D03*
D23*
%TO.P,S4,2*%
%TO.N,pinky_bottom*%
X160037500Y-156912500D03*
%TD*%
D21*
%TO.P,S9,*%
%TO.N,*%
X182012500Y-122812500D03*
X192012500Y-122812500D03*
D22*
%TO.P,S9,1*%
%TO.N,C2*%
X190287500Y-111712500D03*
D23*
%TO.P,S9,2*%
%TO.N,ring_top*%
X179037500Y-113912500D03*
%TD*%
D21*
%TO.P,S15,*%
%TO.N,*%
X220012500Y-117812499D03*
X230012500Y-117812499D03*
D22*
%TO.P,S15,1*%
%TO.N,C4*%
X228287500Y-106712499D03*
D23*
%TO.P,S15,2*%
%TO.N,index_top*%
X217037500Y-108912499D03*
%TD*%
D21*
%TO.P,S18,*%
%TO.N,*%
X239012501Y-120312500D03*
X249012501Y-120312500D03*
D22*
%TO.P,S18,1*%
%TO.N,C5*%
X247287501Y-109212500D03*
D23*
%TO.P,S18,2*%
%TO.N,indexfar_top*%
X236037501Y-111412500D03*
%TD*%
D21*
%TO.P,S10,*%
%TO.N,*%
X201012500Y-150812500D03*
X211012500Y-150812500D03*
D22*
%TO.P,S10,1*%
%TO.N,C3*%
X209287500Y-139712500D03*
D23*
%TO.P,S10,2*%
%TO.N,middle_bottom*%
X198037500Y-141912500D03*
%TD*%
D21*
%TO.P,S20,*%
%TO.N,*%
X240058040Y-182772144D03*
X248718294Y-187772144D03*
D24*
%TO.P,S20,1*%
%TO.N,C5*%
X252774400Y-177296762D03*
D25*
%TO.P,S20,2*%
%TO.N,space_cluster*%
X241931614Y-173577018D03*
%TD*%
D21*
%TO.P,S19,*%
%TO.N,*%
X220849954Y-176342923D03*
X230509212Y-178931113D03*
D26*
%TO.P,S19,1*%
%TO.N,C4*%
X231715881Y-167762874D03*
D27*
%TO.P,S19,2*%
%TO.N,layer_cluster*%
X220279814Y-166976196D03*
%TD*%
D21*
%TO.P,S6,*%
%TO.N,*%
X163012501Y-127812500D03*
X173012501Y-127812500D03*
D22*
%TO.P,S6,1*%
%TO.N,C1*%
X171287501Y-116712500D03*
D23*
%TO.P,S6,2*%
%TO.N,pinky_top*%
X160037501Y-118912500D03*
%TD*%
D21*
%TO.P,S2,*%
%TO.N,*%
X144012499Y-146812501D03*
X154012499Y-146812501D03*
D22*
%TO.P,S2,1*%
%TO.N,C0*%
X152287499Y-135712501D03*
D23*
%TO.P,S2,2*%
%TO.N,outer_home*%
X141037499Y-137912501D03*
%TD*%
D21*
%TO.P,S1,*%
%TO.N,*%
X144012499Y-165812500D03*
X154012499Y-165812500D03*
D22*
%TO.P,S1,1*%
%TO.N,C0*%
X152287499Y-154712500D03*
D23*
%TO.P,S1,2*%
%TO.N,outer_bottom*%
X141037499Y-156912500D03*
%TD*%
D21*
%TO.P,S17,*%
%TO.N,*%
X239012500Y-139312500D03*
X249012500Y-139312500D03*
D22*
%TO.P,S17,1*%
%TO.N,C5*%
X247287500Y-128212500D03*
D23*
%TO.P,S17,2*%
%TO.N,indexfar_home*%
X236037500Y-130412500D03*
%TD*%
D21*
%TO.P,S8,*%
%TO.N,*%
X182012499Y-141812501D03*
X192012499Y-141812501D03*
D22*
%TO.P,S8,1*%
%TO.N,C2*%
X190287499Y-130712501D03*
D23*
%TO.P,S8,2*%
%TO.N,ring_home*%
X179037499Y-132912501D03*
%TD*%
D21*
%TO.P,S3,*%
%TO.N,*%
X144012500Y-127812501D03*
X154012500Y-127812501D03*
D22*
%TO.P,S3,1*%
%TO.N,C0*%
X152287500Y-116712501D03*
D23*
%TO.P,S3,2*%
%TO.N,outer_top*%
X141037500Y-118912501D03*
%TD*%
D21*
%TO.P,S12,*%
%TO.N,*%
X201012499Y-112812500D03*
X211012499Y-112812500D03*
D22*
%TO.P,S12,1*%
%TO.N,C3*%
X209287499Y-101712500D03*
D23*
%TO.P,S12,2*%
%TO.N,middle_top*%
X198037499Y-103912500D03*
%TD*%
D21*
%TO.P,S7,*%
%TO.N,*%
X182012501Y-160812499D03*
X192012501Y-160812499D03*
D22*
%TO.P,S7,1*%
%TO.N,C2*%
X190287501Y-149712499D03*
D23*
%TO.P,S7,2*%
%TO.N,ring_bottom*%
X179037501Y-151912499D03*
%TD*%
D21*
%TO.P,S5,*%
%TO.N,*%
X163012499Y-146812501D03*
X173012499Y-146812501D03*
D22*
%TO.P,S5,1*%
%TO.N,C1*%
X171287499Y-135712501D03*
D23*
%TO.P,S5,2*%
%TO.N,pinky_home*%
X160037499Y-137912501D03*
%TD*%
D28*
%TO.N,C0*%
X149012500Y-156787501D03*
X149012500Y-118787500D03*
X149012500Y-137787501D03*
%TO.N,outer_bottom*%
X149012500Y-157587500D03*
%TO.N,GND*%
X262012500Y-149662500D03*
%TO.N,outer_home*%
X149012500Y-138587501D03*
%TO.N,outer_top*%
X149012499Y-119587500D03*
%TO.N,C1*%
X251012500Y-144662499D03*
X168012499Y-156787501D03*
X269512500Y-124662501D03*
X168012500Y-137787500D03*
X168012499Y-118787500D03*
%TO.N,pinky_bottom*%
X168012500Y-157587500D03*
%TO.N,pinky_home*%
X168012500Y-138587500D03*
%TO.N,pinky_top*%
X168012499Y-119587499D03*
%TO.N,C2*%
X187012500Y-113787500D03*
X187012500Y-132787500D03*
X187012499Y-151787500D03*
X253512500Y-127662501D03*
%TO.N,ring_bottom*%
X187012500Y-152587500D03*
%TO.N,ring_home*%
X187012500Y-133587500D03*
%TO.N,ring_top*%
X187012500Y-114587499D03*
%TO.N,C3*%
X206012499Y-103787499D03*
X206012500Y-141787501D03*
X206012499Y-122787499D03*
%TO.N,middle_bottom*%
X206012499Y-142587500D03*
%TO.N,middle_home*%
X206012501Y-123587500D03*
%TO.N,middle_top*%
X206012500Y-104587500D03*
%TO.N,C4*%
X225012499Y-146787500D03*
X225012498Y-108787501D03*
X228015425Y-168919536D03*
X225012499Y-127787500D03*
%TO.N,index_bottom*%
X225012500Y-147587500D03*
%TO.N,index_home*%
X225012501Y-128587500D03*
%TO.N,index_top*%
X225012501Y-109587499D03*
%TO.N,C5*%
X244012500Y-149287500D03*
X244012500Y-111287499D03*
X244012500Y-130287499D03*
X248900666Y-177456264D03*
%TO.N,indexfar_bottom*%
X244012500Y-150087499D03*
%TO.N,indexfar_home*%
X244012499Y-131087500D03*
%TO.N,indexfar_top*%
X244012500Y-112087500D03*
%TO.N,layer_cluster*%
X227808369Y-169692278D03*
%TO.N,space_cluster*%
X248500667Y-178149084D03*
%TO.N,R2*%
X190012499Y-160162501D03*
X247012499Y-158162499D03*
X171012499Y-165162500D03*
X151012500Y-167662501D03*
X227512499Y-158662501D03*
X208012498Y-153162500D03*
%TO.N,R1*%
X190012499Y-141162500D03*
X151012500Y-148662500D03*
X208012499Y-133662500D03*
X171012500Y-146162501D03*
X227012500Y-138662500D03*
X247512499Y-138662499D03*
%TO.N,R0*%
X151012500Y-129662501D03*
X246012499Y-122162500D03*
X227012499Y-119662500D03*
X171012500Y-127162500D03*
X208012499Y-114662500D03*
X190012500Y-122162500D03*
%TO.N,R3*%
X247032155Y-187212176D03*
X228617675Y-178278579D03*
%TO.N,RAW*%
X269012500Y-146162499D03*
%TO.N,BAT_P*%
X261012500Y-150162499D03*
X269512500Y-144662499D03*
X262512500Y-151662499D03*
%TD*%
D29*
%TO.N,C0*%
X150212499Y-137787500D02*
X149012500Y-137787501D01*
X152287499Y-116712501D02*
X150212500Y-118787500D01*
X152287500Y-154712500D02*
X150212499Y-156787500D01*
X150212499Y-156787500D02*
X149012500Y-156787501D01*
X150212500Y-118787500D02*
X149012500Y-118787500D01*
X152287499Y-135712501D02*
X150212499Y-137787500D01*
%TO.N,outer_bottom*%
X141037499Y-159337500D02*
X147362500Y-165662500D01*
X146858500Y-158766500D02*
X148037500Y-157587500D01*
X148037500Y-157587500D02*
X149012500Y-157587500D01*
X141037500Y-156912499D02*
X141037499Y-159337500D01*
X142591500Y-158766501D02*
X146858500Y-158766500D01*
X140737500Y-156912500D02*
X142591500Y-158766501D01*
D30*
%TO.N,GND*%
X268692500Y-113542500D02*
X267512500Y-113542500D01*
D29*
X259928500Y-149162501D02*
X259928499Y-142096499D01*
X262012500Y-149662500D02*
X261512500Y-149162500D01*
X259928499Y-142096499D02*
X260862499Y-141162500D01*
D30*
X259532499Y-111002500D02*
X260712500Y-111002500D01*
D29*
X261512500Y-149162500D02*
X259928500Y-149162501D01*
D30*
X268692499Y-116082501D02*
X267512500Y-116082499D01*
D29*
%TO.N,outer_home*%
X141037499Y-140337500D02*
X147362499Y-146662499D01*
X148037499Y-138587499D02*
X149012500Y-138587501D01*
X141037499Y-137912500D02*
X141037499Y-140337500D01*
X146858500Y-139766500D02*
X148037499Y-138587499D01*
X140737499Y-137912500D02*
X142591499Y-139766499D01*
X142591499Y-139766499D02*
X146858500Y-139766500D01*
%TO.N,outer_top*%
X141037500Y-121337499D02*
X147362500Y-127662499D01*
X148037499Y-119587500D02*
X149012499Y-119587500D01*
X146858499Y-120766501D02*
X148037499Y-119587500D01*
X142591499Y-120766500D02*
X146858499Y-120766501D01*
X141037500Y-118912500D02*
X141037500Y-121337499D01*
X140737499Y-118912501D02*
X142591499Y-120766500D01*
%TO.N,C1*%
X198012501Y-138162500D02*
X202012499Y-138162500D01*
X205012500Y-135162499D02*
X210012500Y-135162499D01*
X228512500Y-139662501D02*
X233512499Y-144662500D01*
X171287499Y-154712499D02*
X169212499Y-156787500D01*
X180012501Y-145662500D02*
X190512499Y-145662500D01*
X190512499Y-145662500D02*
X198012501Y-138162500D01*
X269512499Y-123382500D02*
X271732500Y-121162501D01*
X169212499Y-118787501D02*
X168012499Y-118787500D01*
X214512500Y-139662500D02*
X228512500Y-139662501D01*
X171287499Y-135712500D02*
X169212501Y-137787499D01*
X171287499Y-154712499D02*
X171287500Y-154387500D01*
X169212501Y-137787499D02*
X168012500Y-137787500D01*
X171287499Y-116712500D02*
X169212499Y-118787501D01*
X169212499Y-156787500D02*
X168012499Y-156787501D01*
X233512499Y-144662500D02*
X251012500Y-144662499D01*
X269512500Y-124662501D02*
X269512499Y-123382500D01*
X202012499Y-138162500D02*
X205012500Y-135162499D01*
X171287500Y-154387500D02*
X180012501Y-145662500D01*
X210012500Y-135162499D02*
X214512500Y-139662500D01*
%TO.N,pinky_bottom*%
X161591500Y-158766500D02*
X165858499Y-158766500D01*
X160037499Y-156912499D02*
X160037499Y-159337501D01*
X160037499Y-159337501D02*
X166362500Y-165662501D01*
X167037500Y-157587500D02*
X168012500Y-157587500D01*
X165858499Y-158766500D02*
X167037500Y-157587500D01*
X159737500Y-156912499D02*
X161591500Y-158766500D01*
%TO.N,pinky_home*%
X165858499Y-139766501D02*
X167037499Y-138587499D01*
X160037500Y-137912500D02*
X160037499Y-140337500D01*
X161591499Y-139766500D02*
X165858499Y-139766501D01*
X167037499Y-138587499D02*
X168012500Y-138587500D01*
X160037499Y-140337500D02*
X166362499Y-146662499D01*
X159737499Y-137912500D02*
X161591499Y-139766500D01*
%TO.N,pinky_top*%
X167037499Y-119587500D02*
X168012499Y-119587499D01*
X161591499Y-120766501D02*
X165858499Y-120766500D01*
X159737499Y-118912500D02*
X161591499Y-120766501D01*
X160037500Y-121337500D02*
X166362499Y-127662500D01*
X160037501Y-118912500D02*
X160037500Y-121337500D01*
X165858499Y-120766500D02*
X167037499Y-119587500D01*
%TO.N,C2*%
X248512499Y-124162500D02*
X252012500Y-127662499D01*
X215912500Y-122062499D02*
X228912500Y-122062501D01*
X190287500Y-130712500D02*
X190287499Y-127762501D01*
X199387499Y-118662499D02*
X202512500Y-118662500D01*
X210012500Y-116162499D02*
X214512499Y-120662499D01*
X229012499Y-122162500D02*
X232512499Y-125662499D01*
X188212500Y-151787500D02*
X187012499Y-151787500D01*
X240012499Y-125662500D02*
X241512499Y-124162499D01*
X188212499Y-113787501D02*
X187012500Y-113787500D01*
X190287499Y-127762501D02*
X199387499Y-118662499D01*
X241512499Y-124162499D02*
X248512499Y-124162500D01*
X232512499Y-125662499D02*
X240012499Y-125662500D01*
X190287500Y-130712500D02*
X188212499Y-132787500D01*
X188212499Y-132787500D02*
X187012500Y-132787500D01*
X214512499Y-120662499D02*
X215912500Y-122062499D01*
X228912500Y-122062501D02*
X229012499Y-122162500D01*
X252012500Y-127662499D02*
X253512500Y-127662501D01*
X190287499Y-111712499D02*
X188212499Y-113787501D01*
X202512500Y-118662500D02*
X205012500Y-116162500D01*
X205012500Y-116162500D02*
X210012500Y-116162499D01*
X190287501Y-149712499D02*
X188212500Y-151787500D01*
%TO.N,ring_bottom*%
X178737500Y-151912500D02*
X180591500Y-153766500D01*
X180591500Y-153766500D02*
X184858501Y-153766499D01*
X179037500Y-151912500D02*
X179037500Y-154337501D01*
X184858501Y-153766499D02*
X186037500Y-152587501D01*
X179037500Y-154337501D02*
X185362500Y-160662499D01*
X186037500Y-152587501D02*
X187012500Y-152587500D01*
%TO.N,ring_home*%
X186037500Y-133587500D02*
X187012500Y-133587500D01*
X178737500Y-132912501D02*
X180591500Y-134766500D01*
X184858500Y-134766500D02*
X186037500Y-133587500D01*
X179037499Y-132912500D02*
X179037499Y-135337500D01*
X180591500Y-134766500D02*
X184858500Y-134766500D01*
X179037499Y-135337500D02*
X185362501Y-141662500D01*
%TO.N,ring_top*%
X184858499Y-115766500D02*
X186037500Y-114587501D01*
X186037500Y-114587501D02*
X187012500Y-114587499D01*
X179037499Y-113912499D02*
X179037500Y-116337500D01*
X178737499Y-113912500D02*
X180591500Y-115766501D01*
X179037500Y-116337500D02*
X185362500Y-122662501D01*
X180591500Y-115766501D02*
X184858499Y-115766500D01*
%TO.N,C3*%
X209287500Y-120712500D02*
X207212500Y-122787500D01*
X209287500Y-101712501D02*
X212562500Y-101712500D01*
X260512499Y-121662501D02*
X260512500Y-125162500D01*
X212562500Y-101712500D02*
X215512500Y-104662501D01*
X209287500Y-101712501D02*
X207212499Y-103787501D01*
X258862500Y-120012499D02*
X260512499Y-121662501D01*
X234012500Y-105662500D02*
X250512500Y-105662500D01*
X255362499Y-120012499D02*
X258862500Y-120012499D01*
X215512500Y-104662501D02*
X233012500Y-104662499D01*
X261592501Y-126242499D02*
X271732500Y-126242500D01*
X254512500Y-119162499D02*
X255362499Y-120012499D01*
X207212499Y-141787500D02*
X206012500Y-141787501D01*
X254512500Y-109662500D02*
X254512500Y-119162499D01*
X250512500Y-105662500D02*
X254512500Y-109662500D01*
X207212500Y-122787500D02*
X206012499Y-122787499D01*
X207212499Y-103787501D02*
X206012499Y-103787499D01*
X209287501Y-139712499D02*
X207212499Y-141787500D01*
X233012500Y-104662499D02*
X234012500Y-105662500D01*
X260512500Y-125162500D02*
X261592501Y-126242499D01*
%TO.N,middle_bottom*%
X199591499Y-143766500D02*
X203858499Y-143766500D01*
X198037500Y-141912499D02*
X198037500Y-144337501D01*
X203858499Y-143766500D02*
X205037499Y-142587500D01*
X198037500Y-144337501D02*
X204362500Y-150662500D01*
X205037499Y-142587500D02*
X206012499Y-142587500D01*
X197737499Y-141912500D02*
X199591499Y-143766500D01*
%TO.N,middle_home*%
X197737501Y-122912499D02*
X199591501Y-124766500D01*
X198037499Y-125337501D02*
X204362500Y-131662499D01*
X198037500Y-122912500D02*
X198037499Y-125337501D01*
X199591501Y-124766500D02*
X203858499Y-124766501D01*
X205037500Y-123587500D02*
X206012501Y-123587500D01*
X203858499Y-124766501D02*
X205037500Y-123587500D01*
%TO.N,middle_top*%
X199591500Y-105766501D02*
X203858500Y-105766501D01*
X197737500Y-103912501D02*
X199591500Y-105766501D01*
X205037500Y-104587501D02*
X206012500Y-104587500D01*
X203858500Y-105766501D02*
X205037500Y-104587501D01*
X198037499Y-106337500D02*
X204362500Y-112662500D01*
X198037500Y-103912499D02*
X198037499Y-106337500D01*
%TO.N,C4*%
X254012500Y-121662499D02*
X254902501Y-122552499D01*
X250512501Y-106662500D02*
X254012499Y-110162500D01*
X226212500Y-108787500D02*
X225012498Y-108787501D01*
X228287500Y-144712500D02*
X226212500Y-146787499D01*
X229174535Y-169230120D02*
X228015425Y-168919536D01*
X260632500Y-128782499D02*
X271732499Y-128782500D01*
X250462500Y-106712501D02*
X250512501Y-106662500D01*
X231715879Y-167762873D02*
X229174535Y-169230120D01*
X226212500Y-127787499D02*
X225012499Y-127787500D01*
X228287500Y-106712499D02*
X226212500Y-108787500D01*
X257902500Y-122552500D02*
X259512500Y-124162500D01*
X259512500Y-124162500D02*
X259512500Y-127662500D01*
X228287500Y-125712500D02*
X226212500Y-127787499D01*
X254902501Y-122552499D02*
X257902500Y-122552500D01*
X259512500Y-127662500D02*
X260632500Y-128782499D01*
X226212500Y-146787499D02*
X225012499Y-146787500D01*
X228287500Y-106712499D02*
X250462500Y-106712501D01*
X254012499Y-110162500D02*
X254012500Y-121662499D01*
%TO.N,index_bottom*%
X216737500Y-146912499D02*
X218591500Y-148766500D01*
X218591500Y-148766500D02*
X222858501Y-148766499D01*
X217037500Y-149337501D02*
X223362500Y-155662500D01*
X217037500Y-146912500D02*
X217037500Y-149337501D01*
X224037501Y-147587499D02*
X225012500Y-147587500D01*
X222858501Y-148766499D02*
X224037501Y-147587499D01*
%TO.N,index_home*%
X224037500Y-128587501D02*
X225012501Y-128587500D01*
X222858500Y-129766500D02*
X224037500Y-128587501D01*
X217037500Y-127912500D02*
X217037499Y-130337500D01*
X217037499Y-130337500D02*
X223362500Y-136662500D01*
X218591499Y-129766501D02*
X222858500Y-129766500D01*
X216737500Y-127912500D02*
X218591499Y-129766501D01*
%TO.N,index_top*%
X217037501Y-111337499D02*
X223362500Y-117662501D01*
X218591501Y-110766500D02*
X222858500Y-110766499D01*
X217037499Y-108912499D02*
X217037501Y-111337499D01*
X216737501Y-108912500D02*
X218591501Y-110766500D01*
X224037500Y-109587501D02*
X225012501Y-109587499D01*
X222858500Y-110766499D02*
X224037500Y-109587501D01*
%TO.N,C5*%
X253012500Y-122662499D02*
X253012499Y-111662499D01*
X247287500Y-109212500D02*
X250562499Y-109212501D01*
X260672500Y-131322501D02*
X271732500Y-131322499D01*
X255202499Y-124852499D02*
X253012500Y-122662499D01*
X247287499Y-147212499D02*
X245212500Y-149287500D01*
X258012500Y-125662499D02*
X258012500Y-128662500D01*
X245212500Y-149287500D02*
X244012500Y-149287500D01*
X247287499Y-128212500D02*
X245212501Y-130287499D01*
X247287500Y-109212500D02*
X245212500Y-111287500D01*
X245212500Y-111287500D02*
X244012500Y-111287499D01*
X257202500Y-124852499D02*
X258012500Y-125662499D01*
X258012500Y-128662500D02*
X260672500Y-131322501D01*
X252774400Y-177296763D02*
X249939897Y-178056264D01*
X250562499Y-109212501D02*
X253012499Y-111662499D01*
X257202500Y-124852499D02*
X255202499Y-124852499D01*
X245212501Y-130287499D02*
X244012500Y-130287499D01*
X249939897Y-178056264D02*
X248900666Y-177456264D01*
%TO.N,indexfar_bottom*%
X236037501Y-151837500D02*
X242362499Y-158162500D01*
X236037500Y-149412499D02*
X236037501Y-151837500D01*
X243037499Y-150087499D02*
X244012500Y-150087499D01*
X237591500Y-151266499D02*
X241858499Y-151266499D01*
X241858499Y-151266499D02*
X243037499Y-150087499D01*
X235737500Y-149412499D02*
X237591500Y-151266499D01*
%TO.N,indexfar_home*%
X236037500Y-132837500D02*
X242362499Y-139162500D01*
X243037500Y-131087499D02*
X244012499Y-131087500D01*
X236037500Y-130412500D02*
X236037500Y-132837500D01*
X235737501Y-130412499D02*
X237591501Y-132266499D01*
X237591501Y-132266499D02*
X241858500Y-132266499D01*
X241858500Y-132266499D02*
X243037500Y-131087499D01*
%TO.N,indexfar_top*%
X237591500Y-113266500D02*
X241858500Y-113266500D01*
X236037500Y-113837500D02*
X242362500Y-120162500D01*
X241858500Y-113266500D02*
X243037500Y-112087500D01*
X235737500Y-111412500D02*
X237591500Y-113266500D01*
X236037500Y-111412501D02*
X236037500Y-113837500D01*
X243037500Y-112087500D02*
X244012500Y-112087500D01*
%TO.N,layer_cluster*%
X219990035Y-166898550D02*
X221301011Y-169169228D01*
X219652176Y-169318567D02*
X224124627Y-177065080D01*
X220279814Y-166976196D02*
X219652176Y-169318567D01*
X221301011Y-169169228D02*
X225422617Y-170273607D01*
X225422617Y-170273607D02*
X226866590Y-169439930D01*
X226866590Y-169439930D02*
X227808369Y-169692278D01*
%TO.N,space_cluster*%
X240719114Y-175677129D02*
X243034225Y-184317241D01*
X241931613Y-173577018D02*
X240719114Y-175677129D01*
X242350418Y-175959628D02*
X246045748Y-178093128D01*
X241671807Y-173427017D02*
X242350418Y-175959628D01*
X246045748Y-178093128D02*
X247656293Y-177661584D01*
X247656293Y-177661584D02*
X248500667Y-178149084D01*
%TO.N,R2*%
X171012499Y-165162500D02*
X171012500Y-163662500D01*
X169662500Y-165012499D02*
X169662499Y-165662499D01*
X254012499Y-133802500D02*
X256492500Y-131322501D01*
X191937499Y-156162500D02*
X202087500Y-156162499D01*
X227512499Y-158662501D02*
X229662499Y-158662501D01*
X189974999Y-158124999D02*
X191937499Y-156162500D01*
X231162500Y-160162500D02*
X244512499Y-160162500D01*
X202087500Y-156162499D02*
X207587499Y-150662500D01*
X208012498Y-153162500D02*
X210012499Y-153162500D01*
X210012499Y-153162500D02*
X214512499Y-157662499D01*
X188662499Y-160662500D02*
X185662500Y-163662500D01*
X190012499Y-158162500D02*
X189974999Y-158124999D01*
X150587500Y-165662500D02*
X152550000Y-167625000D01*
X151012500Y-167662501D02*
X152512500Y-167662499D01*
X152550000Y-167625000D02*
X153087500Y-168162499D01*
X247512500Y-156312499D02*
X247837500Y-155987500D01*
X190012499Y-160162501D02*
X190012499Y-158162500D01*
X229662499Y-158662501D02*
X230087499Y-159087499D01*
X254012500Y-149812499D02*
X254012499Y-133802500D01*
X188587500Y-159512500D02*
X189974999Y-158124999D01*
X245662500Y-159012500D02*
X245662500Y-158162500D01*
X152512500Y-167662499D02*
X152550000Y-167625000D01*
X188587500Y-160662500D02*
X188587500Y-159512500D01*
X207512500Y-150662500D02*
X210012499Y-153162500D01*
X153087500Y-168162499D02*
X166937499Y-168162500D01*
X226662499Y-155662500D02*
X230087499Y-159087499D01*
X224512499Y-157662499D02*
X226512500Y-155662500D01*
X166937499Y-168162500D02*
X169437500Y-165662500D01*
X230087499Y-159087499D02*
X231162500Y-160162500D01*
X247837500Y-155987500D02*
X254012500Y-149812499D01*
X245662500Y-158162500D02*
X247837500Y-155987500D01*
X244512499Y-160162500D02*
X245662500Y-159012500D01*
X247512500Y-157662501D02*
X247512500Y-156312499D01*
X171012500Y-163662500D02*
X169662500Y-165012499D01*
X247012499Y-158162499D02*
X247512500Y-157662501D01*
X185662500Y-163662500D02*
X171012500Y-163662500D01*
X214512499Y-157662499D02*
X224512499Y-157662499D01*
%TO.N,R1*%
X226662500Y-136812501D02*
X228512500Y-138662501D01*
X185662499Y-144662500D02*
X171012500Y-144662499D01*
X207512500Y-131662499D02*
X209512500Y-133662500D01*
X244162500Y-140662500D02*
X245662500Y-139162500D01*
X152512498Y-148662500D02*
X152550000Y-148625000D01*
X202087500Y-137162500D02*
X207587501Y-131662500D01*
X255132499Y-128782499D02*
X256492500Y-128782500D01*
X166937500Y-149162500D02*
X169437500Y-146662501D01*
X190012499Y-141162500D02*
X190012499Y-139162500D01*
X247512499Y-136162500D02*
X255012500Y-128662501D01*
X214512500Y-138662500D02*
X224512499Y-138662499D01*
X151012500Y-148662500D02*
X152512498Y-148662500D01*
X247512499Y-138662499D02*
X247512499Y-136162500D01*
X188587500Y-140512499D02*
X189974999Y-139125000D01*
X152550000Y-148625000D02*
X153087500Y-149162500D01*
X188587500Y-141662500D02*
X188587500Y-140512499D01*
X188662499Y-141662500D02*
X185662499Y-144662500D01*
X245662500Y-138012500D02*
X247512499Y-136162500D01*
X190012499Y-139162500D02*
X189974999Y-139125000D01*
X169662499Y-146012500D02*
X169662500Y-146662499D01*
X227012500Y-138662500D02*
X228512500Y-138662501D01*
X224512499Y-138662499D02*
X226512499Y-136662499D01*
X153087500Y-149162500D02*
X166937500Y-149162500D01*
X228512500Y-138662501D02*
X230512501Y-140662500D01*
X226662499Y-136662501D02*
X226662500Y-136812501D01*
X189974999Y-139125000D02*
X191937500Y-137162500D01*
X150587500Y-146662501D02*
X152550000Y-148625000D01*
X209512500Y-133662500D02*
X214512500Y-138662500D01*
X171012500Y-144662499D02*
X169662499Y-146012500D01*
X230512501Y-140662500D02*
X244162500Y-140662500D01*
X171012500Y-146162501D02*
X171012500Y-144662499D01*
X245662500Y-139162500D02*
X245662500Y-138012500D01*
X191937500Y-137162500D02*
X202087500Y-137162500D01*
X255012500Y-128662501D02*
X255132499Y-128782499D01*
X208012499Y-133662500D02*
X209512500Y-133662500D01*
%TO.N,R0*%
X188662499Y-122662501D02*
X188662500Y-121512500D01*
X245662500Y-120162501D02*
X248087500Y-122587500D01*
X246012499Y-122162500D02*
X247662500Y-122162500D01*
X226662499Y-117812500D02*
X228762500Y-119912500D01*
X171012499Y-125662500D02*
X169662499Y-127012499D01*
X244162500Y-121662500D02*
X245662500Y-120162501D01*
X151012500Y-129662501D02*
X152662500Y-129662499D01*
X192012499Y-118162500D02*
X202162500Y-118162500D01*
X171012500Y-127162500D02*
X171012499Y-125662500D01*
X169512501Y-127662500D02*
X169662500Y-127662500D01*
X152662500Y-129662499D02*
X153162499Y-130162501D01*
X167012500Y-130162500D02*
X169512501Y-127662500D01*
X227012499Y-119662500D02*
X228512499Y-119662499D01*
X209662500Y-114662499D02*
X210087499Y-115087501D01*
X185662501Y-125662499D02*
X172012500Y-125662500D01*
X228762500Y-119912500D02*
X230512500Y-121662499D01*
X207662500Y-112662501D02*
X210087499Y-115087501D01*
X202162500Y-118162500D02*
X207662500Y-112662501D01*
X190012499Y-120162501D02*
X192012499Y-118162500D01*
X230512500Y-121662499D02*
X244162500Y-121662500D01*
X226662499Y-117662500D02*
X226662499Y-117812500D01*
X224662499Y-119662500D02*
X226662499Y-117662500D01*
X251742499Y-126242500D02*
X256492500Y-126242499D01*
X188662499Y-122662501D02*
X185662501Y-125662499D01*
X228512499Y-119662499D02*
X228762500Y-119912500D01*
X214662500Y-119662499D02*
X224662499Y-119662500D01*
X172012500Y-125662500D02*
X171012499Y-125662500D01*
X150662500Y-127662500D02*
X153162499Y-130162501D01*
X169662499Y-127012499D02*
X169662500Y-127662500D01*
X210087499Y-115087501D02*
X214662500Y-119662499D01*
X248087500Y-122587500D02*
X251742499Y-126242500D01*
X153162499Y-130162501D02*
X167012500Y-130162500D01*
X190012500Y-122162500D02*
X190012499Y-120162501D01*
X247662500Y-122162500D02*
X248087500Y-122587500D01*
X208012499Y-114662500D02*
X209662500Y-114662499D01*
X188662500Y-121512500D02*
X190012499Y-120162501D01*
%TO.N,R3*%
X245892109Y-185967239D02*
X244888048Y-187706325D01*
X247032155Y-187212176D02*
X246157156Y-188727720D01*
X233211252Y-176921235D02*
X233311837Y-176863162D01*
X243742092Y-187910733D02*
X236547768Y-183757088D01*
X231921020Y-176575518D02*
X233211252Y-176921235D01*
X245474144Y-188910733D02*
X243742092Y-187910733D01*
X256492500Y-133862499D02*
X255012500Y-135342500D01*
X236512500Y-173662501D02*
X233311837Y-176863162D01*
X231679538Y-176510812D02*
X231921020Y-176575518D01*
X236547768Y-183757088D02*
X236512500Y-183625465D01*
X236512500Y-183625465D02*
X236512500Y-173662501D01*
X246157156Y-188727720D02*
X245474144Y-188910733D01*
X227312182Y-177919180D02*
X230362695Y-176157965D01*
X255012500Y-155162499D02*
X236512500Y-173662501D01*
X255012500Y-135342500D02*
X255012500Y-155162499D01*
X243863528Y-187980844D02*
X243742092Y-187910733D01*
X228617675Y-178278579D02*
X231679538Y-176510812D01*
X244888048Y-187706325D02*
X243863528Y-187980844D01*
X230362695Y-176157965D02*
X231921020Y-176575518D01*
D30*
%TO.N,RAW*%
X259532500Y-108462500D02*
X260712500Y-108462500D01*
X268512499Y-143662500D02*
X268512499Y-145662499D01*
X273987500Y-138187500D02*
X268512499Y-143662500D01*
D29*
X269762500Y-145412501D02*
X269012500Y-146162499D01*
D30*
X273987499Y-108662499D02*
X273987500Y-138187500D01*
X261887500Y-107287500D02*
X272612499Y-107287500D01*
X268512499Y-145662499D02*
X269012500Y-146162499D01*
D29*
X270777500Y-145412499D02*
X269762500Y-145412501D01*
D30*
X272612499Y-107287500D02*
X273987499Y-108662499D01*
X260712500Y-108462500D02*
X261887500Y-107287500D01*
D29*
%TO.N,RST*%
X273282500Y-114932501D02*
X262102499Y-114932499D01*
X270012499Y-141162499D02*
X273512500Y-137662500D01*
D30*
X259532499Y-113542501D02*
X260712499Y-113542499D01*
D29*
X273512500Y-137662500D02*
X273512500Y-115162499D01*
X273512500Y-115162499D02*
X273282500Y-114932501D01*
X262102499Y-114932499D02*
X260712499Y-113542499D01*
X267362500Y-141162501D02*
X270012499Y-141162499D01*
D30*
%TO.N,VCC*%
X259532499Y-116082499D02*
X260712500Y-116082500D01*
%TO.N,P1*%
X268692500Y-108462500D02*
X267512499Y-108462500D01*
%TO.N,P0*%
X268692500Y-111002499D02*
X267512500Y-111002501D01*
%TO.N,MCU1_24*%
X256492500Y-108462500D02*
X258612500Y-108462500D01*
%TO.N,MCU1_1*%
X269612499Y-108462500D02*
X271732499Y-108462499D01*
%TO.N,MCU1_23*%
X256492500Y-111002501D02*
X258612500Y-111002499D01*
%TO.N,MCU1_2*%
X269612499Y-111002500D02*
X271732499Y-111002500D01*
%TO.N,MCU1_22*%
X256492500Y-113542500D02*
X258612500Y-113542499D01*
%TO.N,MCU1_3*%
X269612500Y-113542500D02*
X271732500Y-113542500D01*
%TO.N,MCU1_21*%
X256492500Y-116082500D02*
X258612500Y-116082501D01*
%TO.N,MCU1_4*%
X269612500Y-116082499D02*
X271732499Y-116082501D01*
D29*
%TO.N,BAT_P*%
X260012499Y-151162500D02*
X261012500Y-150162499D01*
X262512500Y-151662499D02*
X260428500Y-151662499D01*
X260428500Y-151662499D02*
X259928500Y-151162501D01*
X259928500Y-151162501D02*
X260012499Y-151162500D01*
X270527500Y-144162501D02*
X270777499Y-143912501D01*
X270262500Y-143912500D02*
X269512500Y-144662499D01*
X270777499Y-143912501D02*
X270262500Y-143912500D01*
X270527501Y-143662500D02*
X270777499Y-143912501D01*
D30*
%TO.N,JST1_1*%
X258912500Y-151162501D02*
X257112499Y-151162500D01*
%TO.N,JST1_2*%
X258912500Y-149162500D02*
X257112500Y-149162500D01*
%TD*%
M02*
