%TF.GenerationSoftware,KiCad,Pcbnew,8.0.6*%
%TF.CreationDate,2024-12-04T22:19:36+00:00*%
%TF.ProjectId,prototype_routed,70726f74-6f74-4797-9065-5f726f757465,v1.0.0*%
%TF.SameCoordinates,Original*%
%TF.FileFunction,Copper,L2,Bot*%
%TF.FilePolarity,Positive*%
%FSLAX46Y46*%
G04 Gerber Fmt 4.6, Leading zero omitted, Abs format (unit mm)*
G04 Created by KiCad (PCBNEW 8.0.6) date 2024-12-04 22:19:36*
%MOMM*%
%LPD*%
G01*
G04 APERTURE LIST*
G04 Aperture macros list*
%AMRotRect*
0 Rectangle, with rotation*
0 The origin of the aperture is its center*
0 $1 length*
0 $2 width*
0 $3 Rotation angle, in degrees counterclockwise*
0 Add horizontal line*
21,1,$1,$2,0,0,$3*%
%AMOutline5P*
0 Free polygon, 5 corners , with rotation*
0 The origin of the aperture is its center*
0 number of corners: always 5*
0 $1 to $10 corner X, Y*
0 $11 Rotation angle, in degrees counterclockwise*
0 create outline with 5 corners*
4,1,5,$1,$2,$3,$4,$5,$6,$7,$8,$9,$10,$1,$2,$11*%
%AMOutline6P*
0 Free polygon, 6 corners , with rotation*
0 The origin of the aperture is its center*
0 number of corners: always 6*
0 $1 to $12 corner X, Y*
0 $13 Rotation angle, in degrees counterclockwise*
0 create outline with 6 corners*
4,1,6,$1,$2,$3,$4,$5,$6,$7,$8,$9,$10,$11,$12,$1,$2,$13*%
%AMOutline7P*
0 Free polygon, 7 corners , with rotation*
0 The origin of the aperture is its center*
0 number of corners: always 7*
0 $1 to $14 corner X, Y*
0 $15 Rotation angle, in degrees counterclockwise*
0 create outline with 7 corners*
4,1,7,$1,$2,$3,$4,$5,$6,$7,$8,$9,$10,$11,$12,$13,$14,$1,$2,$15*%
%AMOutline8P*
0 Free polygon, 8 corners , with rotation*
0 The origin of the aperture is its center*
0 number of corners: always 8*
0 $1 to $16 corner X, Y*
0 $17 Rotation angle, in degrees counterclockwise*
0 create outline with 8 corners*
4,1,8,$1,$2,$3,$4,$5,$6,$7,$8,$9,$10,$11,$12,$13,$14,$15,$16,$1,$2,$17*%
%AMFreePoly0*
4,1,6,0.600000,-1.000000,0.000000,-0.400000,-0.600000,-1.000000,-0.600000,0.250000,0.600000,0.250000,0.600000,-1.000000,0.600000,-1.000000,$1*%
%AMFreePoly1*
4,1,6,0.600000,-0.200000,0.600000,-0.400000,-0.600000,-0.400000,-0.600000,-0.200000,0.000000,0.400000,0.600000,-0.200000,0.600000,-0.200000,$1*%
G04 Aperture macros list end*
%TA.AperFunction,SMDPad,CuDef*%
%ADD10R,0.900000X1.200000*%
%TD*%
%TA.AperFunction,SMDPad,CuDef*%
%ADD11R,0.800000X1.000000*%
%TD*%
%TA.AperFunction,SMDPad,CuDef*%
%ADD12R,1.500000X0.700000*%
%TD*%
%TA.AperFunction,SMDPad,CuDef*%
%ADD13RotRect,0.900000X1.200000X165.000000*%
%TD*%
%TA.AperFunction,SMDPad,CuDef*%
%ADD14FreePoly0,270.000000*%
%TD*%
%TA.AperFunction,ComponentPad*%
%ADD15O,1.750000X1.200000*%
%TD*%
%TA.AperFunction,SMDPad,CuDef*%
%ADD16FreePoly1,270.000000*%
%TD*%
%TA.AperFunction,SMDPad,CuDef*%
%ADD17RotRect,0.900000X1.200000X150.000000*%
%TD*%
%TA.AperFunction,ComponentPad*%
%ADD18C,1.700000*%
%TD*%
%TA.AperFunction,SMDPad,CuDef*%
%ADD19R,0.600000X1.200000*%
%TD*%
%TA.AperFunction,ComponentPad*%
%ADD20C,0.800000*%
%TD*%
%TA.AperFunction,ComponentPad*%
%ADD21C,1.900000*%
%TD*%
%TA.AperFunction,SMDPad,CuDef*%
%ADD22Outline5P,-1.300000X1.300000X1.300000X1.300000X1.300000X-1.300000X-0.117000X-1.300000X-1.300000X-0.117000X0.000000*%
%TD*%
%TA.AperFunction,SMDPad,CuDef*%
%ADD23R,2.000000X2.600000*%
%TD*%
%TA.AperFunction,SMDPad,CuDef*%
%ADD24Outline5P,-1.300000X1.300000X1.300000X1.300000X1.300000X-1.300000X-0.117000X-1.300000X-1.300000X-0.117000X330.000000*%
%TD*%
%TA.AperFunction,SMDPad,CuDef*%
%ADD25RotRect,2.000000X2.600000X330.000000*%
%TD*%
%TA.AperFunction,SMDPad,CuDef*%
%ADD26Outline5P,-1.300000X1.300000X1.300000X1.300000X1.300000X-1.300000X-0.117000X-1.300000X-1.300000X-0.117000X345.000000*%
%TD*%
%TA.AperFunction,SMDPad,CuDef*%
%ADD27RotRect,2.000000X2.600000X345.000000*%
%TD*%
%TA.AperFunction,ViaPad*%
%ADD28C,0.600000*%
%TD*%
%TA.AperFunction,Conductor*%
%ADD29C,0.200000*%
%TD*%
%TA.AperFunction,Conductor*%
%ADD30C,0.250000*%
%TD*%
G04 APERTURE END LIST*
D10*
%TO.P,D7,1*%
%TO.N,R2*%
X188662500Y-160662501D03*
%TO.P,D7,2*%
%TO.N,ring_bottom*%
X185362500Y-160662499D03*
%TD*%
D11*
%TO.P,PWR1,*%
%TO.N,*%
X271427498Y-149812500D03*
X271427499Y-142512500D03*
X273637499Y-142512500D03*
X273637499Y-149812500D03*
D12*
%TO.P,PWR1,1*%
%TO.N,BAT_P*%
X270777499Y-143912500D03*
%TO.P,PWR1,2*%
%TO.N,RAW*%
X270777499Y-146912500D03*
%TO.P,PWR1,3*%
%TO.N,N/C*%
X270777499Y-148412500D03*
%TD*%
D10*
%TO.P,D14,1*%
%TO.N,R1*%
X226662500Y-136662500D03*
%TO.P,D14,2*%
%TO.N,index_home*%
X223362500Y-136662498D03*
%TD*%
%TO.P,D11,1*%
%TO.N,R1*%
X207662499Y-131662501D03*
%TO.P,D11,2*%
%TO.N,middle_home*%
X204362499Y-131662499D03*
%TD*%
%TO.P,D12,1*%
%TO.N,R0*%
X207662501Y-112662501D03*
%TO.P,D12,2*%
%TO.N,middle_top*%
X204362501Y-112662499D03*
%TD*%
D13*
%TO.P,D19,1*%
%TO.N,R3*%
X227312183Y-177919179D03*
%TO.P,D19,2*%
%TO.N,layer_cluster*%
X224124627Y-177065079D03*
%TD*%
D10*
%TO.P,D8,1*%
%TO.N,R1*%
X188662500Y-141662501D03*
%TO.P,D8,2*%
%TO.N,ring_home*%
X185362500Y-141662499D03*
%TD*%
%TO.P,D9,1*%
%TO.N,R0*%
X188662500Y-122662501D03*
%TO.P,D9,2*%
%TO.N,ring_top*%
X185362500Y-122662499D03*
%TD*%
%TO.P,D5,1*%
%TO.N,R1*%
X169662501Y-146662501D03*
%TO.P,D5,2*%
%TO.N,pinky_home*%
X166362501Y-146662499D03*
%TD*%
%TO.P,D16,1*%
%TO.N,R2*%
X245662500Y-158162500D03*
%TO.P,D16,2*%
%TO.N,indexfar_bottom*%
X242362500Y-158162498D03*
%TD*%
D14*
%TO.P,JST1,1*%
%TO.N,BAT_P*%
X259928499Y-149162499D03*
%TO.P,JST1,2*%
%TO.N,GND*%
X259928499Y-151162499D03*
D15*
%TO.P,JST1,11*%
%TO.N,JST1_1*%
X257112499Y-151162499D03*
%TO.P,JST1,12*%
%TO.N,JST1_2*%
X257112499Y-149162499D03*
D16*
%TO.P,JST1,31*%
%TO.N,JST1_1*%
X258912499Y-151162500D03*
%TO.P,JST1,32*%
%TO.N,JST1_2*%
X258912499Y-149162499D03*
%TD*%
D17*
%TO.P,D20,1*%
%TO.N,R3*%
X245892108Y-185967238D03*
%TO.P,D20,2*%
%TO.N,space_cluster*%
X243034224Y-184317240D03*
%TD*%
D10*
%TO.P,D18,1*%
%TO.N,R0*%
X245662499Y-120162500D03*
%TO.P,D18,2*%
%TO.N,indexfar_top*%
X242362499Y-120162498D03*
%TD*%
%TO.P,D15,1*%
%TO.N,R0*%
X226662500Y-117662500D03*
%TO.P,D15,2*%
%TO.N,index_top*%
X223362500Y-117662498D03*
%TD*%
%TO.P,D6,1*%
%TO.N,R0*%
X169662500Y-127662500D03*
%TO.P,D6,2*%
%TO.N,pinky_top*%
X166362500Y-127662498D03*
%TD*%
%TO.P,D13,1*%
%TO.N,R2*%
X226662499Y-155662501D03*
%TO.P,D13,2*%
%TO.N,index_bottom*%
X223362499Y-155662499D03*
%TD*%
D18*
%TO.P,RST1,1*%
%TO.N,RST*%
X267362500Y-141162500D03*
%TO.P,RST1,2*%
%TO.N,GND*%
X260862500Y-141162500D03*
%TD*%
D10*
%TO.P,D1,1*%
%TO.N,R2*%
X150662500Y-165662501D03*
%TO.P,D1,2*%
%TO.N,outer_bottom*%
X147362500Y-165662499D03*
%TD*%
%TO.P,D2,1*%
%TO.N,R1*%
X150662500Y-146662502D03*
%TO.P,D2,2*%
%TO.N,outer_home*%
X147362500Y-146662500D03*
%TD*%
%TO.P,D4,1*%
%TO.N,R2*%
X169662501Y-165662501D03*
%TO.P,D4,2*%
%TO.N,pinky_bottom*%
X166362501Y-165662499D03*
%TD*%
%TO.P,D10,1*%
%TO.N,R2*%
X207662499Y-150662501D03*
%TO.P,D10,2*%
%TO.N,middle_bottom*%
X204362499Y-150662499D03*
%TD*%
%TO.P,D17,1*%
%TO.N,R1*%
X245662500Y-139162502D03*
%TO.P,D17,2*%
%TO.N,indexfar_home*%
X242362500Y-139162500D03*
%TD*%
%TO.P,D3,1*%
%TO.N,R0*%
X150662500Y-127662501D03*
%TO.P,D3,2*%
%TO.N,outer_top*%
X147362500Y-127662499D03*
%TD*%
D18*
%TO.P,MCU1,1*%
%TO.N,MCU1_1*%
X271732500Y-108462500D03*
%TO.P,MCU1,2*%
%TO.N,MCU1_2*%
X271732500Y-111002499D03*
%TO.P,MCU1,3*%
%TO.N,MCU1_3*%
X271732500Y-113542500D03*
%TO.P,MCU1,4*%
%TO.N,MCU1_4*%
X271732500Y-116082500D03*
%TO.P,MCU1,5*%
%TO.N,C0*%
X271732500Y-118622500D03*
%TO.P,MCU1,6*%
%TO.N,C1*%
X271732500Y-121162500D03*
%TO.P,MCU1,7*%
%TO.N,C2*%
X271732500Y-123702499D03*
%TO.P,MCU1,8*%
%TO.N,C3*%
X271732500Y-126242500D03*
%TO.P,MCU1,9*%
%TO.N,C4*%
X271732500Y-128782500D03*
%TO.P,MCU1,10*%
%TO.N,C5*%
X271732500Y-131322500D03*
%TO.P,MCU1,11*%
%TO.N,P16*%
X271732500Y-133862500D03*
%TO.P,MCU1,12*%
%TO.N,P10*%
X271732500Y-136402500D03*
%TO.P,MCU1,13*%
%TO.N,P9*%
X256492499Y-136402500D03*
%TO.P,MCU1,14*%
%TO.N,R3*%
X256492500Y-133862500D03*
%TO.P,MCU1,15*%
%TO.N,R2*%
X256492500Y-131322501D03*
%TO.P,MCU1,16*%
%TO.N,R1*%
X256492500Y-128782500D03*
%TO.P,MCU1,17*%
%TO.N,R0*%
X256492500Y-126242500D03*
%TO.P,MCU1,18*%
%TO.N,P4*%
X256492500Y-123702500D03*
%TO.P,MCU1,19*%
%TO.N,P3*%
X256492500Y-121162500D03*
%TO.P,MCU1,20*%
%TO.N,P2*%
X256492500Y-118622501D03*
%TO.P,MCU1,21*%
%TO.N,MCU1_21*%
X256492500Y-116082500D03*
D19*
X258632500Y-116082500D03*
%TO.N,MCU1_4*%
X269592501Y-116082499D03*
D18*
%TO.P,MCU1,22*%
%TO.N,MCU1_22*%
X256492500Y-113542500D03*
D19*
X258632500Y-113542500D03*
%TO.N,MCU1_3*%
X269592500Y-113542500D03*
D18*
%TO.P,MCU1,23*%
%TO.N,MCU1_23*%
X256492500Y-111002500D03*
D19*
X258632500Y-111002500D03*
%TO.N,MCU1_2*%
X269592500Y-111002500D03*
D18*
%TO.P,MCU1,24*%
%TO.N,MCU1_24*%
X256492500Y-108462500D03*
D19*
X258632500Y-108462500D03*
%TO.N,MCU1_1*%
X269592500Y-108462500D03*
%TO.P,MCU1,101*%
%TO.N,P1*%
X259532500Y-108462500D03*
D20*
X267512500Y-108462500D03*
D19*
%TO.P,MCU1,102*%
%TO.N,P0*%
X259532500Y-111002500D03*
D20*
X267512500Y-111002500D03*
D19*
%TO.P,MCU1,103*%
%TO.N,GND*%
X259532501Y-113542500D03*
D20*
X267512500Y-113542500D03*
D19*
%TO.P,MCU1,104*%
X259532500Y-116082500D03*
D20*
X267512500Y-116082500D03*
%TO.P,MCU1,121*%
%TO.N,VCC*%
X260712500Y-116082499D03*
D19*
X268692500Y-116082501D03*
D20*
%TO.P,MCU1,122*%
%TO.N,RST*%
X260712501Y-113542500D03*
D19*
X268692500Y-113542499D03*
D20*
%TO.P,MCU1,123*%
%TO.N,GND*%
X260712500Y-111002500D03*
D19*
X268692501Y-111002499D03*
D20*
%TO.P,MCU1,124*%
%TO.N,RAW*%
X260712500Y-108462500D03*
D19*
X268692500Y-108462500D03*
%TD*%
D21*
%TO.P,S11,*%
%TO.N,*%
X201012500Y-131812501D03*
X211012500Y-131812501D03*
D22*
%TO.P,S11,1*%
%TO.N,C3*%
X202737500Y-120712501D03*
D23*
%TO.P,S11,2*%
%TO.N,middle_home*%
X213987500Y-122912500D03*
%TD*%
D21*
%TO.P,S16,*%
%TO.N,*%
X239012500Y-158312499D03*
X249012500Y-158312499D03*
D22*
%TO.P,S16,1*%
%TO.N,C5*%
X240737500Y-147212499D03*
D23*
%TO.P,S16,2*%
%TO.N,indexfar_bottom*%
X251987500Y-149412498D03*
%TD*%
D21*
%TO.P,S14,*%
%TO.N,*%
X220012499Y-136812499D03*
X230012499Y-136812499D03*
D22*
%TO.P,S14,1*%
%TO.N,C4*%
X221737499Y-125712499D03*
D23*
%TO.P,S14,2*%
%TO.N,index_home*%
X232987499Y-127912498D03*
%TD*%
D21*
%TO.P,S13,*%
%TO.N,*%
X220012500Y-155812500D03*
X230012500Y-155812500D03*
D22*
%TO.P,S13,1*%
%TO.N,C4*%
X221737500Y-144712500D03*
D23*
%TO.P,S13,2*%
%TO.N,index_bottom*%
X232987500Y-146912499D03*
%TD*%
D21*
%TO.P,S4,*%
%TO.N,*%
X163012500Y-165812500D03*
X173012500Y-165812500D03*
D22*
%TO.P,S4,1*%
%TO.N,C1*%
X164737500Y-154712500D03*
D23*
%TO.P,S4,2*%
%TO.N,pinky_bottom*%
X175987500Y-156912499D03*
%TD*%
D21*
%TO.P,S9,*%
%TO.N,*%
X182012500Y-122812500D03*
X192012500Y-122812500D03*
D22*
%TO.P,S9,1*%
%TO.N,C2*%
X183737500Y-111712500D03*
D23*
%TO.P,S9,2*%
%TO.N,ring_top*%
X194987500Y-113912499D03*
%TD*%
D21*
%TO.P,S15,*%
%TO.N,*%
X220012500Y-117812499D03*
X230012500Y-117812499D03*
D22*
%TO.P,S15,1*%
%TO.N,C4*%
X221737500Y-106712499D03*
D23*
%TO.P,S15,2*%
%TO.N,index_top*%
X232987500Y-108912498D03*
%TD*%
D21*
%TO.P,S18,*%
%TO.N,*%
X239012501Y-120312500D03*
X249012501Y-120312500D03*
D22*
%TO.P,S18,1*%
%TO.N,C5*%
X240737501Y-109212500D03*
D23*
%TO.P,S18,2*%
%TO.N,indexfar_top*%
X251987501Y-111412499D03*
%TD*%
D21*
%TO.P,S10,*%
%TO.N,*%
X201012500Y-150812500D03*
X211012500Y-150812500D03*
D22*
%TO.P,S10,1*%
%TO.N,C3*%
X202737500Y-139712500D03*
D23*
%TO.P,S10,2*%
%TO.N,middle_bottom*%
X213987500Y-141912499D03*
%TD*%
D21*
%TO.P,S20,*%
%TO.N,*%
X240058040Y-182772144D03*
X248718294Y-187772144D03*
D24*
%TO.P,S20,1*%
%TO.N,C5*%
X247101934Y-174021762D03*
D25*
%TO.P,S20,2*%
%TO.N,space_cluster*%
X255744720Y-181552018D03*
%TD*%
D21*
%TO.P,S19,*%
%TO.N,*%
X220849954Y-176342923D03*
X230509212Y-178931113D03*
D26*
%TO.P,S19,1*%
%TO.N,C4*%
X225389067Y-166067609D03*
D27*
%TO.P,S19,2*%
%TO.N,layer_cluster*%
X235686331Y-171104360D03*
%TD*%
D21*
%TO.P,S6,*%
%TO.N,*%
X163012501Y-127812500D03*
X173012501Y-127812500D03*
D22*
%TO.P,S6,1*%
%TO.N,C1*%
X164737501Y-116712500D03*
D23*
%TO.P,S6,2*%
%TO.N,pinky_top*%
X175987501Y-118912499D03*
%TD*%
D21*
%TO.P,S2,*%
%TO.N,*%
X144012499Y-146812501D03*
X154012499Y-146812501D03*
D22*
%TO.P,S2,1*%
%TO.N,C0*%
X145737499Y-135712501D03*
D23*
%TO.P,S2,2*%
%TO.N,outer_home*%
X156987499Y-137912500D03*
%TD*%
D21*
%TO.P,S1,*%
%TO.N,*%
X144012499Y-165812500D03*
X154012499Y-165812500D03*
D22*
%TO.P,S1,1*%
%TO.N,C0*%
X145737499Y-154712500D03*
D23*
%TO.P,S1,2*%
%TO.N,outer_bottom*%
X156987499Y-156912499D03*
%TD*%
D21*
%TO.P,S17,*%
%TO.N,*%
X239012500Y-139312500D03*
X249012500Y-139312500D03*
D22*
%TO.P,S17,1*%
%TO.N,C5*%
X240737500Y-128212500D03*
D23*
%TO.P,S17,2*%
%TO.N,indexfar_home*%
X251987500Y-130412499D03*
%TD*%
D21*
%TO.P,S8,*%
%TO.N,*%
X182012499Y-141812501D03*
X192012499Y-141812501D03*
D22*
%TO.P,S8,1*%
%TO.N,C2*%
X183737499Y-130712501D03*
D23*
%TO.P,S8,2*%
%TO.N,ring_home*%
X194987499Y-132912500D03*
%TD*%
D21*
%TO.P,S3,*%
%TO.N,*%
X144012500Y-127812501D03*
X154012500Y-127812501D03*
D22*
%TO.P,S3,1*%
%TO.N,C0*%
X145737500Y-116712501D03*
D23*
%TO.P,S3,2*%
%TO.N,outer_top*%
X156987500Y-118912500D03*
%TD*%
D21*
%TO.P,S12,*%
%TO.N,*%
X201012499Y-112812500D03*
X211012499Y-112812500D03*
D22*
%TO.P,S12,1*%
%TO.N,C3*%
X202737499Y-101712500D03*
D23*
%TO.P,S12,2*%
%TO.N,middle_top*%
X213987499Y-103912499D03*
%TD*%
D21*
%TO.P,S7,*%
%TO.N,*%
X182012501Y-160812499D03*
X192012501Y-160812499D03*
D22*
%TO.P,S7,1*%
%TO.N,C2*%
X183737501Y-149712499D03*
D23*
%TO.P,S7,2*%
%TO.N,ring_bottom*%
X194987501Y-151912498D03*
%TD*%
D21*
%TO.P,S5,*%
%TO.N,*%
X163012499Y-146812501D03*
X173012499Y-146812501D03*
D22*
%TO.P,S5,1*%
%TO.N,C1*%
X164737499Y-135712501D03*
D23*
%TO.P,S5,2*%
%TO.N,pinky_home*%
X175987499Y-137912500D03*
%TD*%
D28*
%TO.N,C0*%
X149012500Y-156787501D03*
X149012500Y-118787500D03*
X149012500Y-137787501D03*
%TO.N,outer_bottom*%
X149012500Y-157587500D03*
%TO.N,GND*%
X262012500Y-149662500D03*
%TO.N,outer_home*%
X149012500Y-138587501D03*
%TO.N,outer_top*%
X149012499Y-119587500D03*
%TO.N,C1*%
X251012500Y-144662499D03*
X168012499Y-156787501D03*
X269512500Y-124662501D03*
X168012500Y-137787500D03*
X168012499Y-118787500D03*
%TO.N,pinky_bottom*%
X168012500Y-157587500D03*
%TO.N,pinky_home*%
X168012500Y-138587500D03*
%TO.N,pinky_top*%
X168012499Y-119587499D03*
%TO.N,C2*%
X187012500Y-113787500D03*
X187012500Y-132787500D03*
X187012499Y-151787500D03*
X253512500Y-127662501D03*
%TO.N,ring_bottom*%
X187012500Y-152587500D03*
%TO.N,ring_home*%
X187012500Y-133587500D03*
%TO.N,ring_top*%
X187012500Y-114587499D03*
%TO.N,C3*%
X206012499Y-103787499D03*
X206012500Y-141787501D03*
X206012499Y-122787499D03*
%TO.N,middle_bottom*%
X206012499Y-142587500D03*
%TO.N,middle_home*%
X206012501Y-123587500D03*
%TO.N,middle_top*%
X206012500Y-104587500D03*
%TO.N,C4*%
X225012499Y-146787500D03*
X225012498Y-108787501D03*
X228015425Y-168919536D03*
X225012499Y-127787500D03*
%TO.N,index_bottom*%
X225012500Y-147587500D03*
%TO.N,index_home*%
X225012501Y-128587500D03*
%TO.N,index_top*%
X225012501Y-109587499D03*
%TO.N,C5*%
X244012500Y-149287500D03*
X244012500Y-111287499D03*
X244012500Y-130287499D03*
X248900666Y-177456264D03*
%TO.N,indexfar_bottom*%
X244012500Y-150087499D03*
%TO.N,indexfar_home*%
X244012499Y-131087500D03*
%TO.N,indexfar_top*%
X244012500Y-112087500D03*
%TO.N,layer_cluster*%
X227808369Y-169692278D03*
%TO.N,space_cluster*%
X248500667Y-178149084D03*
%TO.N,R2*%
X190012499Y-160162501D03*
X247012499Y-158162499D03*
X171012499Y-165162500D03*
X151012500Y-167662501D03*
X227512499Y-158662501D03*
X208012498Y-153162500D03*
%TO.N,R1*%
X190012499Y-141162500D03*
X151012500Y-148662500D03*
X208012499Y-133662500D03*
X171012500Y-146162501D03*
X227012500Y-138662500D03*
X247512499Y-138662499D03*
%TO.N,R0*%
X151012500Y-129662501D03*
X246012499Y-122162500D03*
X227012499Y-119662500D03*
X171012500Y-127162500D03*
X208012499Y-114662500D03*
X190012500Y-122162500D03*
%TO.N,R3*%
X247032155Y-187212176D03*
X228617675Y-178278579D03*
%TO.N,RAW*%
X269012500Y-146162499D03*
%TO.N,BAT_P*%
X261012500Y-150162499D03*
X269512500Y-144662499D03*
X262512500Y-151662499D03*
%TD*%
D29*
%TO.N,C0*%
X177512500Y-113662500D02*
X182512499Y-108662500D01*
X199512501Y-99162499D02*
X213012499Y-99162500D01*
X229012500Y-106162499D02*
X252512499Y-106162501D01*
X146012500Y-154437500D02*
X145737499Y-154712499D01*
X226512500Y-103662500D02*
X229012500Y-106162499D01*
X259512499Y-118662499D02*
X259552500Y-118622500D01*
X216512499Y-103662500D02*
X226512500Y-103662500D01*
X252512499Y-106162501D02*
X253512501Y-107162499D01*
X145737499Y-116712500D02*
X146012499Y-116987500D01*
X254082500Y-117232500D02*
X258082500Y-117232499D01*
X145737499Y-116712500D02*
X147812500Y-118787499D01*
X145737499Y-116712500D02*
X145737499Y-116437500D01*
X145737499Y-154712499D02*
X147812500Y-156787501D01*
X147812500Y-118787499D02*
X149012500Y-118787500D01*
X145737500Y-135712499D02*
X146012499Y-135987501D01*
X258082500Y-117232499D02*
X259512499Y-118662499D01*
X145737499Y-116437500D02*
X148512500Y-113662499D01*
X196512499Y-107662500D02*
X196512499Y-102162499D01*
X215512500Y-102662501D02*
X216512499Y-103662500D01*
X146012499Y-135987501D02*
X146012500Y-154437500D01*
X145737500Y-135712499D02*
X147812499Y-137787499D01*
X147812499Y-137787499D02*
X149012500Y-137787501D01*
X253512498Y-116662500D02*
X254082500Y-117232500D01*
X182512499Y-108662500D02*
X195512500Y-108662500D01*
X195512500Y-108662500D02*
X196512499Y-107662500D01*
X196512499Y-102162499D02*
X199512501Y-99162499D01*
X253512501Y-107162499D02*
X253512498Y-116662500D01*
X147812500Y-156787501D02*
X149012500Y-156787501D01*
X213012499Y-99162500D02*
X215512500Y-101662499D01*
X146012499Y-116987500D02*
X146012500Y-135437500D01*
X259552500Y-118622500D02*
X271732500Y-118622500D01*
X148512500Y-113662499D02*
X177512500Y-113662500D01*
X146012500Y-135437500D02*
X145737500Y-135712499D01*
X215512500Y-101662499D02*
X215512500Y-102662501D01*
%TO.N,outer_bottom*%
X152512500Y-164162501D02*
X156987499Y-159687501D01*
X149973666Y-157587500D02*
X149012500Y-157587500D01*
X156987499Y-159687501D02*
X156987500Y-156912500D01*
X147362500Y-164812501D02*
X148012500Y-164162500D01*
X148012500Y-164162500D02*
X152512500Y-164162501D01*
X155433499Y-158766499D02*
X151152666Y-158766500D01*
X151152666Y-158766500D02*
X149973666Y-157587500D01*
X157287500Y-156912501D02*
X155433499Y-158766499D01*
X147362500Y-165662500D02*
X147362500Y-164812501D01*
D30*
%TO.N,GND*%
X268887500Y-111002501D02*
X268537805Y-111002499D01*
D29*
X261512499Y-117662499D02*
X260012499Y-117662499D01*
X263362500Y-138662500D02*
X272012499Y-138662501D01*
X259532499Y-113542501D02*
X259532499Y-116082499D01*
D30*
X261012805Y-114267500D02*
X261507805Y-113772500D01*
X259687195Y-113542500D02*
X260412194Y-114267499D01*
X260412195Y-116807501D02*
X261012805Y-116807499D01*
D29*
X259928500Y-151162501D02*
X261512499Y-151162499D01*
X272012499Y-138662501D02*
X273012500Y-137662500D01*
X268692500Y-111002499D02*
X267302500Y-112392501D01*
X260682499Y-112392499D02*
X259532499Y-113542501D01*
D30*
X259337499Y-113542500D02*
X259687195Y-113542500D01*
X266707194Y-110782500D02*
X260932500Y-110782500D01*
X259687194Y-116082499D02*
X260412195Y-116807501D01*
D29*
X261512499Y-151162499D02*
X262012500Y-150662499D01*
X273012501Y-118162500D02*
X272082499Y-117232500D01*
D30*
X261507804Y-116312500D02*
X267282500Y-116312499D01*
D29*
X262012500Y-150662499D02*
X262012500Y-149662500D01*
D30*
X268537805Y-111002499D02*
X267812805Y-110277500D01*
D29*
X273012500Y-137662500D02*
X273012501Y-118162500D01*
X260012499Y-117662499D02*
X259532500Y-117182501D01*
D30*
X261507805Y-113772500D02*
X267282499Y-113772499D01*
D29*
X272082499Y-117232500D02*
X261942500Y-117232501D01*
D30*
X267212195Y-110277499D02*
X266707194Y-110782500D01*
D29*
X261942500Y-117232501D02*
X261512499Y-117662499D01*
D30*
X259337499Y-116082500D02*
X259687194Y-116082499D01*
D29*
X267302500Y-112392501D02*
X260682499Y-112392499D01*
X259532500Y-117182501D02*
X259532499Y-116082499D01*
D30*
X267812805Y-110277500D02*
X267212195Y-110277499D01*
D29*
X260862499Y-141162500D02*
X263362500Y-138662500D01*
D30*
X260412194Y-114267499D02*
X261012805Y-114267500D01*
X261012805Y-116807499D02*
X261507804Y-116312500D01*
D29*
%TO.N,outer_home*%
X156987501Y-140687500D02*
X156987500Y-137912500D01*
X148012501Y-145162500D02*
X152512500Y-145162500D01*
X149973666Y-138587501D02*
X149012500Y-138587501D01*
X157287499Y-137912500D02*
X155433500Y-139766499D01*
X152512500Y-145162500D02*
X156987501Y-140687500D01*
X147362500Y-145812500D02*
X148012501Y-145162500D01*
X155433500Y-139766499D02*
X151152665Y-139766501D01*
X147362499Y-146662499D02*
X147362500Y-145812500D01*
X151152665Y-139766501D02*
X149973666Y-138587501D01*
%TO.N,outer_top*%
X147387499Y-127637499D02*
X147387499Y-126787500D01*
X152537500Y-126137501D02*
X157012499Y-121662501D01*
X157287499Y-118912500D02*
X155433501Y-120766499D01*
X155433501Y-120766499D02*
X151152665Y-120766501D01*
X147387499Y-126787500D02*
X148037500Y-126137500D01*
X149973666Y-119587501D02*
X149012499Y-119587500D01*
X148037500Y-126137500D02*
X152537500Y-126137501D01*
X151152665Y-120766501D02*
X149973666Y-119587501D01*
X157012499Y-121662501D02*
X156987499Y-121637500D01*
X156987499Y-121637500D02*
X156987499Y-118912499D01*
%TO.N,C1*%
X166812499Y-137787500D02*
X168012500Y-137787500D01*
X165012499Y-135437501D02*
X164737500Y-135712500D01*
X164737499Y-116712500D02*
X165012500Y-116987499D01*
X164737499Y-116712500D02*
X166812500Y-118787500D01*
X269512501Y-126162499D02*
X269512500Y-124662501D01*
X165012500Y-116987499D02*
X165012499Y-135437501D01*
X164737500Y-135712500D02*
X165012499Y-135987500D01*
X165012499Y-135987500D02*
X165012500Y-154437500D01*
X164737499Y-154712500D02*
X166812499Y-156787499D01*
X166812500Y-118787500D02*
X168012499Y-118787500D01*
X251012500Y-144662499D02*
X269512501Y-126162499D01*
X165012500Y-154437500D02*
X164737499Y-154712500D01*
X166812499Y-156787499D02*
X168012499Y-156787501D01*
X164737500Y-135712500D02*
X166812499Y-137787500D01*
%TO.N,pinky_bottom*%
X168973667Y-157587499D02*
X168012500Y-157587500D01*
X174433499Y-158766499D02*
X170152665Y-158766499D01*
X171512500Y-164012500D02*
X175987500Y-159537499D01*
X166362500Y-164662499D02*
X167012500Y-164012499D01*
X175987500Y-159537499D02*
X175987500Y-156912500D01*
X176287500Y-156912501D02*
X174433499Y-158766499D01*
X167012500Y-164012499D02*
X171512500Y-164012500D01*
X166362499Y-165512499D02*
X166362500Y-164662499D01*
X170152665Y-158766499D02*
X168973667Y-157587499D01*
%TO.N,pinky_home*%
X176287499Y-137912499D02*
X174433499Y-139766499D01*
X168973666Y-138587500D02*
X168012500Y-138587500D01*
X175987500Y-140687499D02*
X175987500Y-137912499D01*
X167012500Y-145162499D02*
X171512500Y-145162500D01*
X171512500Y-145162500D02*
X175987500Y-140687499D01*
X174433499Y-139766499D02*
X170152665Y-139766501D01*
X166362500Y-145812499D02*
X167012500Y-145162499D01*
X170152665Y-139766501D02*
X168973666Y-138587500D01*
X166362499Y-146662499D02*
X166362500Y-145812499D01*
%TO.N,pinky_top*%
X176012500Y-121662500D02*
X175987500Y-121637499D01*
X166387499Y-127637499D02*
X166387500Y-126787499D01*
X171537500Y-126137500D02*
X176012500Y-121662500D01*
X167037500Y-126137500D02*
X171537500Y-126137500D01*
X174433499Y-120766500D02*
X170152665Y-120766500D01*
X170152665Y-120766500D02*
X168973665Y-119587499D01*
X176287499Y-118912500D02*
X174433499Y-120766500D01*
X166387500Y-126787499D02*
X167037500Y-126137500D01*
X175987500Y-121637499D02*
X175987500Y-118912499D01*
X168973665Y-119587499D02*
X168012499Y-119587499D01*
%TO.N,C2*%
X257042500Y-127632501D02*
X261012500Y-123662500D01*
X261012500Y-123662500D02*
X262012500Y-123662500D01*
X253542500Y-127632499D02*
X257042500Y-127632501D01*
X183737499Y-130712500D02*
X185812499Y-132787499D01*
X183737499Y-130712500D02*
X184012500Y-130987500D01*
X185812499Y-132787499D02*
X187012500Y-132787500D01*
X262052499Y-123702499D02*
X271732499Y-123702501D01*
X183737499Y-149712500D02*
X185812500Y-151787501D01*
X184012501Y-149437499D02*
X183737499Y-149712500D01*
X184012500Y-130437500D02*
X183737499Y-130712500D01*
X262012500Y-123662500D02*
X262052499Y-123702499D01*
X185812500Y-151787501D02*
X187012499Y-151787500D01*
X184012500Y-130987500D02*
X184012501Y-149437499D01*
X185812499Y-113787499D02*
X187012500Y-113787500D01*
X253512500Y-127662501D02*
X253542500Y-127632499D01*
X184012499Y-111987499D02*
X184012500Y-130437500D01*
X183737499Y-111712501D02*
X185812499Y-113787499D01*
X183737499Y-111712501D02*
X184012499Y-111987499D01*
%TO.N,ring_bottom*%
X193433500Y-153766501D02*
X189152666Y-153766500D01*
X190512499Y-159162500D02*
X194987501Y-154687500D01*
X187973666Y-152587499D02*
X187012500Y-152587500D01*
X185362500Y-159812499D02*
X186012500Y-159162501D01*
X194987501Y-154687500D02*
X194987500Y-151912501D01*
X186012500Y-159162501D02*
X190512499Y-159162500D01*
X189152666Y-153766500D02*
X187973666Y-152587499D01*
X195287500Y-151912501D02*
X193433500Y-153766501D01*
X185362500Y-160662499D02*
X185362500Y-159812499D01*
%TO.N,ring_home*%
X194987500Y-135687499D02*
X194987500Y-132912500D01*
X185362501Y-141662500D02*
X185362500Y-140812499D01*
X187973666Y-133587500D02*
X187012500Y-133587500D01*
X190512499Y-140162501D02*
X194987500Y-135687499D01*
X186012501Y-140162499D02*
X190512499Y-140162501D01*
X195287499Y-132912500D02*
X193433499Y-134766500D01*
X185362500Y-140812499D02*
X186012501Y-140162499D01*
X189152667Y-134766500D02*
X187973666Y-133587500D01*
X193433499Y-134766500D02*
X189152667Y-134766500D01*
%TO.N,ring_top*%
X194987499Y-116612500D02*
X194987499Y-113912499D01*
X193433499Y-115766500D02*
X189152665Y-115766499D01*
X189152665Y-115766499D02*
X187973667Y-114587500D01*
X186012499Y-121087500D02*
X190512500Y-121087499D01*
X195287500Y-113912501D02*
X193433499Y-115766500D01*
X185362500Y-122587500D02*
X185362500Y-121737499D01*
X187973667Y-114587500D02*
X187012500Y-114587499D01*
X190512500Y-121087499D02*
X194987499Y-116612500D01*
X185362500Y-121737499D02*
X186012499Y-121087500D01*
%TO.N,C3*%
X203012500Y-101987500D02*
X203012500Y-120437501D01*
X204812499Y-141787500D02*
X206012500Y-141787501D01*
X202737500Y-101712501D02*
X203012500Y-101987500D01*
X202737500Y-120712500D02*
X204812500Y-122787500D01*
X203012500Y-120437501D02*
X202737500Y-120712500D01*
X204812500Y-103787499D02*
X206012499Y-103787499D01*
X203012499Y-139437500D02*
X202737500Y-139712501D01*
X202737500Y-101712501D02*
X204812500Y-103787499D01*
X203012501Y-120987500D02*
X203012499Y-139437500D01*
X202737500Y-139712501D02*
X204812499Y-141787500D01*
X202737500Y-120712500D02*
X203012501Y-120987500D01*
X204812500Y-122787500D02*
X206012499Y-122787499D01*
%TO.N,middle_bottom*%
X204387500Y-150637499D02*
X204387499Y-149787499D01*
X214012500Y-144662499D02*
X214012500Y-144162500D01*
X213987499Y-144137501D02*
X213987499Y-141912500D01*
X212433500Y-143766501D02*
X208152667Y-143766499D01*
X205037500Y-149137499D02*
X209537499Y-149137500D01*
X206973666Y-142587499D02*
X206012499Y-142587500D01*
X208152667Y-143766499D02*
X206973666Y-142587499D01*
X214012500Y-144162500D02*
X213987499Y-144137501D01*
X209537499Y-149137500D02*
X214012500Y-144662499D01*
X204387499Y-149787499D02*
X205037500Y-149137499D01*
X214287499Y-141912500D02*
X212433500Y-143766501D01*
%TO.N,middle_home*%
X214287500Y-122912500D02*
X212433500Y-124766500D01*
X208152666Y-124766500D02*
X206973665Y-123587500D01*
X205012499Y-130162499D02*
X209512499Y-130162499D01*
X209512499Y-130162499D02*
X213987499Y-125687499D01*
X204362501Y-130812499D02*
X205012499Y-130162499D01*
X204362500Y-131662499D02*
X204362501Y-130812499D01*
X213987499Y-125687499D02*
X213987500Y-122912500D01*
X206973665Y-123587500D02*
X206012501Y-123587500D01*
X212433500Y-124766500D02*
X208152666Y-124766500D01*
%TO.N,middle_top*%
X204387501Y-112637500D02*
X204387499Y-111787500D01*
X212433500Y-105766500D02*
X208152666Y-105766501D01*
X208152666Y-105766501D02*
X206973666Y-104587500D01*
X206973666Y-104587500D02*
X206012500Y-104587500D01*
X205037499Y-111137500D02*
X209537499Y-111137500D01*
X209537499Y-111137500D02*
X214012500Y-106662500D01*
X214012500Y-106662500D02*
X213987499Y-106637500D01*
X213987499Y-106637500D02*
X213987500Y-103912499D01*
X204387499Y-111787500D02*
X205037499Y-111137500D01*
X214287500Y-103912501D02*
X212433500Y-105766500D01*
%TO.N,C4*%
X223812499Y-108787501D02*
X225012498Y-108787501D01*
X226856313Y-168608955D02*
X228015425Y-168919536D01*
X223812500Y-127787500D02*
X225012499Y-127787500D01*
X222012500Y-106987499D02*
X222012500Y-125437500D01*
X222012500Y-144987500D02*
X222012499Y-162691043D01*
X222012500Y-125437500D02*
X221737500Y-125712500D01*
X222012501Y-125987500D02*
X222012500Y-144437499D01*
X225389065Y-166067608D02*
X226856313Y-168608955D01*
X221737500Y-125712500D02*
X223812500Y-127787500D01*
X222012500Y-144437499D02*
X221737501Y-144712499D01*
X221737499Y-106712499D02*
X223812499Y-108787501D01*
X221737499Y-106712499D02*
X222012500Y-106987499D01*
X221737501Y-144712499D02*
X223812500Y-146787501D01*
X221737501Y-144712499D02*
X222012500Y-144987500D01*
X221737500Y-125712500D02*
X222012501Y-125987500D01*
X222012499Y-162691043D02*
X225389065Y-166067608D01*
X223812500Y-146787501D02*
X225012499Y-146787500D01*
%TO.N,index_bottom*%
X224037500Y-154137499D02*
X228537500Y-154137500D01*
X233012500Y-149162500D02*
X232987500Y-149137500D01*
X225973665Y-147587500D02*
X225012500Y-147587500D01*
X233287501Y-146912499D02*
X231433500Y-148766500D01*
X232987500Y-149137500D02*
X232987500Y-146912501D01*
X227152666Y-148766500D02*
X225973665Y-147587500D01*
X233012500Y-149662499D02*
X233012500Y-149162500D01*
X223387499Y-154787500D02*
X224037500Y-154137499D01*
X223387500Y-155637501D02*
X223387499Y-154787500D01*
X231433500Y-148766500D02*
X227152666Y-148766500D01*
X228537500Y-154137500D02*
X233012500Y-149662499D01*
%TO.N,index_home*%
X233012500Y-130662500D02*
X232987500Y-130637500D01*
X232987500Y-130637500D02*
X232987500Y-127912500D01*
X233287500Y-127912500D02*
X231433500Y-129766500D01*
X231433500Y-129766500D02*
X227152666Y-129766500D01*
X225973667Y-128587500D02*
X225012501Y-128587500D01*
X223387500Y-136637501D02*
X223387500Y-135787500D01*
X227152666Y-129766500D02*
X225973667Y-128587500D01*
X223387500Y-135787500D02*
X224037499Y-135137501D01*
X224037499Y-135137501D02*
X228537500Y-135137500D01*
X228537500Y-135137500D02*
X233012500Y-130662500D01*
%TO.N,index_top*%
X233012500Y-111662500D02*
X232987500Y-111637499D01*
X233287500Y-108912501D02*
X231433500Y-110766501D01*
X223387500Y-117637500D02*
X223387500Y-116787499D01*
X225973667Y-109587499D02*
X225012501Y-109587499D01*
X228537500Y-116137500D02*
X233012500Y-111662500D01*
X231433500Y-110766501D02*
X227152666Y-110766499D01*
X223387500Y-116787499D02*
X224037500Y-116137501D01*
X227152666Y-110766499D02*
X225973667Y-109587499D01*
X224037500Y-116137501D02*
X228537500Y-116137500D01*
X232987500Y-111637499D02*
X232987500Y-108912500D01*
%TO.N,C5*%
X241012500Y-128487501D02*
X241012500Y-146937499D01*
X241012500Y-147487500D02*
X241012500Y-167932328D01*
X247861436Y-176856264D02*
X248900666Y-177456264D01*
X240737500Y-147212500D02*
X241012500Y-147487500D01*
X241012500Y-127937500D02*
X240737500Y-128212499D01*
X242812501Y-130287500D02*
X244012500Y-130287499D01*
X241012500Y-109487500D02*
X241012500Y-127937500D01*
X242812501Y-111287499D02*
X244012500Y-111287499D01*
X240737500Y-109212500D02*
X242812501Y-111287499D01*
X240737500Y-109212500D02*
X241012500Y-109487500D01*
X240737500Y-128212499D02*
X242812501Y-130287500D01*
X241012500Y-167932328D02*
X247101935Y-174021762D01*
X242812498Y-149287501D02*
X244012500Y-149287500D01*
X241012500Y-146937499D02*
X240737500Y-147212500D01*
X240737500Y-128212499D02*
X241012500Y-128487501D01*
X240737500Y-147212500D02*
X242812498Y-149287501D01*
X247101934Y-174021762D02*
X247861436Y-176856264D01*
%TO.N,indexfar_bottom*%
X242387499Y-157287499D02*
X243037500Y-156637500D01*
X247537500Y-156637499D02*
X252012499Y-152162499D01*
X242387501Y-158137499D02*
X242387499Y-157287499D01*
X251987499Y-149412501D02*
X251987499Y-152137499D01*
X246152665Y-151266499D02*
X244973666Y-150087499D01*
X251987499Y-152137499D02*
X252012499Y-152162499D01*
X252287499Y-149412499D02*
X250433500Y-151266500D01*
X243037500Y-156637500D02*
X247537500Y-156637499D01*
X244973666Y-150087499D02*
X244012500Y-150087499D01*
X250433500Y-151266500D02*
X246152665Y-151266499D01*
%TO.N,indexfar_home*%
X244973665Y-131087500D02*
X244012499Y-131087500D01*
X243037499Y-137637500D02*
X247537500Y-137637500D01*
X252287500Y-130412499D02*
X250433500Y-132266500D01*
X246152665Y-132266500D02*
X244973665Y-131087500D01*
X247537500Y-137637500D02*
X252012499Y-133162499D01*
X252012499Y-133162499D02*
X251987499Y-133137499D01*
X242387499Y-138287500D02*
X243037499Y-137637500D01*
X250433500Y-132266500D02*
X246152665Y-132266500D01*
X251987499Y-133137499D02*
X251987499Y-130412500D01*
X242387499Y-139137501D02*
X242387499Y-138287500D01*
%TO.N,indexfar_top*%
X243037499Y-118637501D02*
X247537499Y-118637499D01*
X244973665Y-112087499D02*
X244012500Y-112087500D01*
X242387500Y-119287500D02*
X243037499Y-118637501D01*
X251987499Y-114137499D02*
X251987499Y-111412500D01*
X252287500Y-111412499D02*
X250433500Y-113266500D01*
X252012499Y-114162500D02*
X251987499Y-114137499D01*
X247537499Y-118637499D02*
X252012499Y-114162500D01*
X250433500Y-113266500D02*
X246152666Y-113266500D01*
X242387500Y-120137501D02*
X242387500Y-119287500D01*
X246152666Y-113266500D02*
X244973665Y-112087499D01*
%TO.N,layer_cluster*%
X229570462Y-171385019D02*
X228736784Y-169941045D01*
X233705431Y-172492983D02*
X229570462Y-171385019D01*
X235686330Y-171104360D02*
X235352895Y-172348758D01*
X225950397Y-176010970D02*
X224124627Y-177065080D01*
X228736784Y-169941045D02*
X227808369Y-169692278D01*
X228039979Y-176570872D02*
X225950397Y-176010970D01*
X235352895Y-172348758D02*
X228039979Y-176570872D01*
X235976107Y-171182006D02*
X233705431Y-172492983D01*
%TO.N,space_cluster*%
X246949624Y-184855125D02*
X255098269Y-182671702D01*
X249333061Y-178629667D02*
X248500667Y-178149084D01*
X256004526Y-181702016D02*
X253471915Y-182380627D01*
X249764604Y-180240210D02*
X249333061Y-178629667D01*
X243450274Y-183596621D02*
X244351548Y-183355125D01*
X243034225Y-184317241D02*
X243450274Y-183596621D01*
X255098269Y-182671702D02*
X255744720Y-181552017D01*
X244351548Y-183355125D02*
X246949624Y-184855125D01*
X253471915Y-182380627D02*
X249764604Y-180240210D01*
%TO.N,R2*%
X207662500Y-152812500D02*
X208012498Y-153162500D01*
X150662499Y-165662499D02*
X150662500Y-167312500D01*
X245662500Y-158162500D02*
X247012499Y-158162499D01*
X170512500Y-165662500D02*
X171012499Y-165162500D01*
X226662500Y-157812501D02*
X227512499Y-158662501D01*
X207662500Y-150662501D02*
X207662500Y-152812500D01*
X189512500Y-160662501D02*
X190012499Y-160162501D01*
X226662499Y-155662500D02*
X226662500Y-157812501D01*
X188662499Y-160662500D02*
X189512500Y-160662501D01*
X169662499Y-165662499D02*
X170512500Y-165662500D01*
X150662500Y-167312500D02*
X151012500Y-167662501D01*
%TO.N,R1*%
X245662500Y-139162500D02*
X247012499Y-139162500D01*
X226662500Y-138312499D02*
X227012500Y-138662500D01*
X188662499Y-141662500D02*
X189512501Y-141662499D01*
X207662499Y-133312499D02*
X208012499Y-133662500D01*
X169662500Y-146662499D02*
X170512500Y-146662499D01*
X150662500Y-148312500D02*
X151012500Y-148662500D01*
X247012499Y-139162500D02*
X247512499Y-138662499D01*
X170512500Y-146662499D02*
X171012500Y-146162501D01*
X207662500Y-131662500D02*
X207662499Y-133312499D01*
X189512501Y-141662499D02*
X190012499Y-141162500D01*
X150662501Y-146662499D02*
X150662500Y-148312500D01*
X226662499Y-136662501D02*
X226662500Y-138312499D01*
%TO.N,R0*%
X207662500Y-112662501D02*
X207662501Y-114312499D01*
X150662500Y-127662500D02*
X150662499Y-129312499D01*
X226662499Y-117662500D02*
X226662500Y-119312500D01*
X226662500Y-119312500D02*
X227012499Y-119662500D01*
X245662500Y-120162501D02*
X245662499Y-121812500D01*
X245662499Y-121812500D02*
X246012499Y-122162500D01*
X207662501Y-114312499D02*
X208012499Y-114662500D01*
X170512500Y-127662500D02*
X171012500Y-127162500D01*
X150662499Y-129312499D02*
X151012500Y-129662501D01*
X169662500Y-127662500D02*
X170512500Y-127662500D01*
X188662499Y-122662501D02*
X189512500Y-122662500D01*
X189512500Y-122662500D02*
X190012500Y-122162500D01*
%TO.N,R3*%
X245892109Y-185967239D02*
X246846169Y-186518066D01*
X246846169Y-186518066D02*
X247032155Y-187212176D01*
X227312182Y-177919180D02*
X228611123Y-178267231D01*
X228611123Y-178267231D02*
X228617675Y-178278579D01*
D30*
%TO.N,RAW*%
X267212195Y-107737500D02*
X266707195Y-108242501D01*
D29*
X269012500Y-146162499D02*
X269762500Y-146912500D01*
D30*
X267812804Y-107737500D02*
X267212195Y-107737500D01*
X268887499Y-108462500D02*
X268537805Y-108462501D01*
X268537805Y-108462501D02*
X267812804Y-107737500D01*
D29*
X269762500Y-146912500D02*
X270777500Y-146912500D01*
D30*
X266707195Y-108242501D02*
X260932500Y-108242500D01*
%TO.N,RST*%
X268887499Y-113542500D02*
X268537805Y-113542499D01*
X267812805Y-112817500D02*
X267212195Y-112817500D01*
X268537805Y-113542499D02*
X267812805Y-112817500D01*
X266707195Y-113322501D02*
X260932499Y-113322499D01*
X267212195Y-112817500D02*
X266707195Y-113322501D01*
%TO.N,VCC*%
X267812805Y-115357499D02*
X267212195Y-115357501D01*
X268887499Y-116082500D02*
X268537806Y-116082500D01*
X268537806Y-116082500D02*
X267812805Y-115357499D01*
X266707195Y-115862501D02*
X260932500Y-115862500D01*
X267212195Y-115357501D02*
X266707195Y-115862501D01*
%TO.N,P1*%
X259687195Y-108462499D02*
X260412195Y-109187500D01*
X259337499Y-108462499D02*
X259687195Y-108462499D01*
X261012805Y-109187500D02*
X261507804Y-108692501D01*
X260412195Y-109187500D02*
X261012805Y-109187500D01*
X261507804Y-108692501D02*
X267282500Y-108692500D01*
%TO.N,P0*%
X261012804Y-111727499D02*
X261507806Y-111232499D01*
X259687195Y-111002500D02*
X260412194Y-111727499D01*
X259337500Y-111002501D02*
X259687195Y-111002500D01*
X260412194Y-111727499D02*
X261012804Y-111727499D01*
X261507806Y-111232499D02*
X267282500Y-111232499D01*
%TO.N,MCU1_24*%
X256492500Y-108462500D02*
X258612500Y-108462500D01*
%TO.N,MCU1_1*%
X271732499Y-108462499D02*
X269612499Y-108462500D01*
%TO.N,MCU1_23*%
X256492500Y-111002501D02*
X258612500Y-111002499D01*
%TO.N,MCU1_2*%
X271732499Y-111002500D02*
X269612499Y-111002500D01*
%TO.N,MCU1_22*%
X256492500Y-113542500D02*
X258612500Y-113542499D01*
%TO.N,MCU1_3*%
X271732500Y-113542500D02*
X269612500Y-113542500D01*
%TO.N,MCU1_21*%
X256492500Y-116082500D02*
X258612500Y-116082501D01*
%TO.N,MCU1_4*%
X271732499Y-116082501D02*
X269612500Y-116082499D01*
D29*
%TO.N,BAT_P*%
X262012500Y-145162500D02*
X263512500Y-143662500D01*
X270527501Y-143662500D02*
X270777499Y-143912501D01*
X262012499Y-147078500D02*
X262012500Y-145162500D01*
X263512500Y-143662500D02*
X270527501Y-143662500D01*
X269512500Y-144662499D02*
X262512500Y-151662499D01*
X270527500Y-144162501D02*
X270777499Y-143912501D01*
X261012500Y-150162499D02*
X260928499Y-150162499D01*
X259928500Y-149162501D02*
X262012499Y-147078500D01*
X260928499Y-150162499D02*
X259928500Y-149162501D01*
D30*
%TO.N,JST1_1*%
X258912500Y-151162501D02*
X257112499Y-151162500D01*
%TO.N,JST1_2*%
X258912500Y-149162500D02*
X257112500Y-149162500D01*
%TD*%
M02*
