%TF.GenerationSoftware,KiCad,Pcbnew,8.0.6*%
%TF.CreationDate,2024-12-04T22:19:36+00:00*%
%TF.ProjectId,prototype_routed,70726f74-6f74-4797-9065-5f726f757465,v1.0.0*%
%TF.SameCoordinates,Original*%
%TF.FileFunction,Paste,Bot*%
%TF.FilePolarity,Positive*%
%FSLAX46Y46*%
G04 Gerber Fmt 4.6, Leading zero omitted, Abs format (unit mm)*
G04 Created by KiCad (PCBNEW 8.0.6) date 2024-12-04 22:19:36*
%MOMM*%
%LPD*%
G01*
G04 APERTURE LIST*
G04 Aperture macros list*
%AMRotRect*
0 Rectangle, with rotation*
0 The origin of the aperture is its center*
0 $1 length*
0 $2 width*
0 $3 Rotation angle, in degrees counterclockwise*
0 Add horizontal line*
21,1,$1,$2,0,0,$3*%
%AMOutline5P*
0 Free polygon, 5 corners , with rotation*
0 The origin of the aperture is its center*
0 number of corners: always 5*
0 $1 to $10 corner X, Y*
0 $11 Rotation angle, in degrees counterclockwise*
0 create outline with 5 corners*
4,1,5,$1,$2,$3,$4,$5,$6,$7,$8,$9,$10,$1,$2,$11*%
%AMOutline6P*
0 Free polygon, 6 corners , with rotation*
0 The origin of the aperture is its center*
0 number of corners: always 6*
0 $1 to $12 corner X, Y*
0 $13 Rotation angle, in degrees counterclockwise*
0 create outline with 6 corners*
4,1,6,$1,$2,$3,$4,$5,$6,$7,$8,$9,$10,$11,$12,$1,$2,$13*%
%AMOutline7P*
0 Free polygon, 7 corners , with rotation*
0 The origin of the aperture is its center*
0 number of corners: always 7*
0 $1 to $14 corner X, Y*
0 $15 Rotation angle, in degrees counterclockwise*
0 create outline with 7 corners*
4,1,7,$1,$2,$3,$4,$5,$6,$7,$8,$9,$10,$11,$12,$13,$14,$1,$2,$15*%
%AMOutline8P*
0 Free polygon, 8 corners , with rotation*
0 The origin of the aperture is its center*
0 number of corners: always 8*
0 $1 to $16 corner X, Y*
0 $17 Rotation angle, in degrees counterclockwise*
0 create outline with 8 corners*
4,1,8,$1,$2,$3,$4,$5,$6,$7,$8,$9,$10,$11,$12,$13,$14,$15,$16,$1,$2,$17*%
%AMFreePoly0*
4,1,6,0.600000,-1.000000,0.000000,-0.400000,-0.600000,-1.000000,-0.600000,0.250000,0.600000,0.250000,0.600000,-1.000000,0.600000,-1.000000,$1*%
%AMFreePoly1*
4,1,6,0.600000,-0.200000,0.600000,-0.400000,-0.600000,-0.400000,-0.600000,-0.200000,0.000000,0.400000,0.600000,-0.200000,0.600000,-0.200000,$1*%
G04 Aperture macros list end*
%ADD10R,0.900000X1.200000*%
%ADD11R,0.800000X1.000000*%
%ADD12R,1.500000X0.700000*%
%ADD13RotRect,0.900000X1.200000X165.000000*%
%ADD14FreePoly0,270.000000*%
%ADD15FreePoly1,270.000000*%
%ADD16RotRect,0.900000X1.200000X150.000000*%
%ADD17R,0.600000X1.200000*%
%ADD18Outline5P,-1.300000X1.300000X1.300000X1.300000X1.300000X-1.300000X-0.117000X-1.300000X-1.300000X-0.117000X0.000000*%
%ADD19R,2.000000X2.600000*%
%ADD20Outline5P,-1.300000X1.300000X1.300000X1.300000X1.300000X-1.300000X-0.117000X-1.300000X-1.300000X-0.117000X330.000000*%
%ADD21RotRect,2.000000X2.600000X330.000000*%
%ADD22Outline5P,-1.300000X1.300000X1.300000X1.300000X1.300000X-1.300000X-0.117000X-1.300000X-1.300000X-0.117000X345.000000*%
%ADD23RotRect,2.000000X2.600000X345.000000*%
G04 APERTURE END LIST*
D10*
%TO.C,D7*%
X188662500Y-160662501D03*
X185362500Y-160662499D03*
%TD*%
D11*
%TO.C,PWR1*%
X271427498Y-149812500D03*
X271427499Y-142512500D03*
X273637499Y-142512500D03*
X273637499Y-149812500D03*
D12*
X270777499Y-143912500D03*
X270777499Y-146912500D03*
X270777499Y-148412500D03*
%TD*%
D10*
%TO.C,D14*%
X226662500Y-136662500D03*
X223362500Y-136662498D03*
%TD*%
%TO.C,D11*%
X207662499Y-131662501D03*
X204362499Y-131662499D03*
%TD*%
%TO.C,D12*%
X207662501Y-112662501D03*
X204362501Y-112662499D03*
%TD*%
D13*
%TO.C,D19*%
X227312183Y-177919179D03*
X224124627Y-177065079D03*
%TD*%
D10*
%TO.C,D8*%
X188662500Y-141662501D03*
X185362500Y-141662499D03*
%TD*%
%TO.C,D9*%
X188662500Y-122662501D03*
X185362500Y-122662499D03*
%TD*%
%TO.C,D5*%
X169662501Y-146662501D03*
X166362501Y-146662499D03*
%TD*%
%TO.C,D16*%
X245662500Y-158162500D03*
X242362500Y-158162498D03*
%TD*%
D14*
%TO.C,JST1*%
X259928499Y-149162499D03*
X259928499Y-151162499D03*
D15*
X258912499Y-151162500D03*
X258912499Y-149162499D03*
%TD*%
D16*
%TO.C,D20*%
X245892108Y-185967238D03*
X243034224Y-184317240D03*
%TD*%
D10*
%TO.C,D18*%
X245662499Y-120162500D03*
X242362499Y-120162498D03*
%TD*%
%TO.C,D15*%
X226662500Y-117662500D03*
X223362500Y-117662498D03*
%TD*%
%TO.C,D6*%
X169662500Y-127662500D03*
X166362500Y-127662498D03*
%TD*%
%TO.C,D13*%
X226662499Y-155662501D03*
X223362499Y-155662499D03*
%TD*%
%TO.C,D1*%
X150662500Y-165662501D03*
X147362500Y-165662499D03*
%TD*%
%TO.C,D2*%
X150662500Y-146662502D03*
X147362500Y-146662500D03*
%TD*%
%TO.C,D4*%
X169662501Y-165662501D03*
X166362501Y-165662499D03*
%TD*%
%TO.C,D10*%
X207662499Y-150662501D03*
X204362499Y-150662499D03*
%TD*%
%TO.C,D17*%
X245662500Y-139162502D03*
X242362500Y-139162500D03*
%TD*%
%TO.C,D3*%
X150662500Y-127662501D03*
X147362500Y-127662499D03*
%TD*%
D17*
%TO.C,MCU1*%
X258632500Y-116082500D03*
X269592501Y-116082499D03*
X258632500Y-113542500D03*
X269592500Y-113542500D03*
X258632500Y-111002500D03*
X269592500Y-111002500D03*
X258632500Y-108462500D03*
X269592500Y-108462500D03*
X259532500Y-108462500D03*
X259532500Y-111002500D03*
X259532501Y-113542500D03*
X259532500Y-116082500D03*
X268692500Y-116082501D03*
X268692500Y-113542499D03*
X268692501Y-111002499D03*
X268692500Y-108462500D03*
%TD*%
D18*
%TO.C,S11*%
X202737500Y-120712501D03*
D19*
X213987500Y-122912500D03*
%TD*%
D18*
%TO.C,S16*%
X240737500Y-147212499D03*
D19*
X251987500Y-149412498D03*
%TD*%
D18*
%TO.C,S14*%
X221737499Y-125712499D03*
D19*
X232987499Y-127912498D03*
%TD*%
D18*
%TO.C,S13*%
X221737500Y-144712500D03*
D19*
X232987500Y-146912499D03*
%TD*%
D18*
%TO.C,S4*%
X164737500Y-154712500D03*
D19*
X175987500Y-156912499D03*
%TD*%
D18*
%TO.C,S9*%
X183737500Y-111712500D03*
D19*
X194987500Y-113912499D03*
%TD*%
D18*
%TO.C,S15*%
X221737500Y-106712499D03*
D19*
X232987500Y-108912498D03*
%TD*%
D18*
%TO.C,S18*%
X240737501Y-109212500D03*
D19*
X251987501Y-111412499D03*
%TD*%
D18*
%TO.C,S10*%
X202737500Y-139712500D03*
D19*
X213987500Y-141912499D03*
%TD*%
D20*
%TO.C,S20*%
X247101934Y-174021762D03*
D21*
X255744720Y-181552018D03*
%TD*%
D22*
%TO.C,S19*%
X225389067Y-166067609D03*
D23*
X235686331Y-171104360D03*
%TD*%
D18*
%TO.C,S6*%
X164737501Y-116712500D03*
D19*
X175987501Y-118912499D03*
%TD*%
D18*
%TO.C,S2*%
X145737499Y-135712501D03*
D19*
X156987499Y-137912500D03*
%TD*%
D18*
%TO.C,S1*%
X145737499Y-154712500D03*
D19*
X156987499Y-156912499D03*
%TD*%
D18*
%TO.C,S17*%
X240737500Y-128212500D03*
D19*
X251987500Y-130412499D03*
%TD*%
D18*
%TO.C,S8*%
X183737499Y-130712501D03*
D19*
X194987499Y-132912500D03*
%TD*%
D18*
%TO.C,S3*%
X145737500Y-116712501D03*
D19*
X156987500Y-118912500D03*
%TD*%
D18*
%TO.C,S12*%
X202737499Y-101712500D03*
D19*
X213987499Y-103912499D03*
%TD*%
D18*
%TO.C,S7*%
X183737501Y-149712499D03*
D19*
X194987501Y-151912498D03*
%TD*%
D18*
%TO.C,S5*%
X164737499Y-135712501D03*
D19*
X175987499Y-137912500D03*
%TD*%
M02*
