M48
; DRILL file {KiCad 8.0.6} date 2024-12-04T22:19:12+0000
; FORMAT={-:-/ absolute / inch / decimal}
; #@! TF.CreationDate,2024-12-04T22:19:12+00:00
; #@! TF.GenerationSoftware,Kicad,Pcbnew,8.0.6
; #@! TF.FileFunction,Plated,1,2,PTH
FMAT,2
INCH
; #@! TA.AperFunction,Plated,PTH,ViaDrill
T1C0.0118
; #@! TA.AperFunction,Plated,PTH,ComponentDrill
T2C0.0157
; #@! TA.AperFunction,Plated,PTH,ComponentDrill
T3C0.0295
; #@! TA.AperFunction,Plated,PTH,ComponentDrill
T4C0.0394
; #@! TA.AperFunction,Plated,PTH,ComponentDrill
T5C0.0630
%
G90
G05
T1
X5.8666Y-4.7082
X5.8666Y-4.6767
X5.8666Y-5.4247
X5.8666Y-5.4562
X5.8666Y-6.1727
X5.8666Y-6.2042
X5.9454Y-5.1048
X5.9454Y-5.8529
X5.9454Y-6.6009
X6.6147Y-4.6767
X6.6147Y-4.7082
X6.6147Y-6.1727
X6.6147Y-5.4247
X6.6147Y-5.4562
X6.6147Y-6.2042
X6.7328Y-6.5025
X6.7328Y-5.0064
X6.7328Y-5.7544
X7.3627Y-5.9759
X7.3627Y-4.4798
X7.3627Y-4.5113
X7.3627Y-5.2279
X7.3627Y-5.2594
X7.3627Y-6.0074
X7.4808Y-5.5576
X7.4808Y-6.3056
X7.4808Y-4.8095
X8.1107Y-4.0861
X8.1107Y-4.8342
X8.1107Y-5.6137
X8.1107Y-4.1176
X8.1107Y-5.5822
X8.1107Y-4.8656
X8.1895Y-6.03
X8.1895Y-4.5143
X8.1895Y-5.2623
X8.8588Y-4.283
X8.8588Y-5.031
X8.8588Y-5.779
X8.8588Y-5.8105
X8.8588Y-4.3145
X8.8588Y-5.0625
X8.9375Y-4.7111
X8.9375Y-5.4592
X8.9572Y-6.2466
X8.9688Y-6.6808
X8.977Y-6.6504
X9.0007Y-7.0188
X9.6068Y-5.1609
X9.6068Y-4.3814
X9.6068Y-4.4129
X9.6068Y-5.1294
X9.6068Y-5.8775
X9.6068Y-5.909
X9.6855Y-4.8095
X9.7249Y-6.2269
X9.7257Y-7.3706
X9.7446Y-5.4592
X9.7835Y-7.0137
X9.7992Y-6.9865
X9.8824Y-5.6954
X9.9808Y-5.0261
X10.2761Y-5.9119
X10.3155Y-5.8922
X10.3351Y-5.971
X10.591Y-5.7544
X10.6107Y-4.908
X10.6107Y-5.6954
T2
X10.2643Y-4.2702
X10.2643Y-4.3702
X10.2643Y-4.5702
X10.2643Y-4.4702
X10.532Y-4.2702
X10.532Y-4.3702
X10.532Y-4.4702
X10.532Y-4.5702
T3
X10.1225Y-5.8725
X10.1225Y-5.9513
T4
X10.0981Y-5.3702
X10.0981Y-4.2702
X10.0981Y-4.3702
X10.0981Y-4.4702
X10.0981Y-4.5702
X10.0981Y-4.6702
X10.0981Y-4.7702
X10.0981Y-4.8702
X10.0981Y-4.9702
X10.0981Y-5.0702
X10.0981Y-5.1702
X10.0981Y-5.2702
X10.2702Y-5.5576
X10.5261Y-5.5576
X10.6981Y-4.2702
X10.6981Y-4.3702
X10.6981Y-4.4702
X10.6981Y-4.5702
X10.6981Y-4.6702
X10.6981Y-4.7702
X10.6981Y-4.8702
X10.6981Y-4.9702
X10.6981Y-5.0702
X10.6981Y-5.1702
X10.6981Y-5.2702
X10.6981Y-5.3702
T5
X5.6698Y-5.78
X5.6698Y-6.5281
X5.6698Y-5.032
X6.0635Y-5.78
X6.0635Y-6.5281
X6.0635Y-5.032
X6.4178Y-5.78
X6.4178Y-6.5281
X6.4178Y-5.032
X6.8115Y-5.78
X6.8115Y-6.5281
X6.8115Y-5.032
X7.1658Y-5.5832
X7.1658Y-4.8351
X7.1658Y-6.3312
X7.5595Y-5.5832
X7.5595Y-4.8351
X7.5595Y-6.3312
X7.9139Y-4.4414
X7.9139Y-5.1895
X7.9139Y-5.9375
X8.3076Y-4.4414
X8.3076Y-5.1895
X8.3076Y-5.9375
X8.6619Y-5.3863
X8.6619Y-4.6383
X8.6619Y-6.1344
X8.6949Y-6.9426
X9.0556Y-5.3863
X9.0556Y-4.6383
X9.0556Y-6.1344
X9.0752Y-7.0445
X9.4099Y-5.4847
X9.4099Y-6.2328
X9.4099Y-4.7367
X9.4511Y-7.1958
X9.7921Y-7.3926
X9.8036Y-5.4847
X9.8036Y-6.2328
X9.8036Y-4.7367
M30
