M48
; DRILL file {KiCad 8.0.6} date 2024-12-04T22:19:12+0000
; FORMAT={-:-/ absolute / inch / decimal}
; #@! TF.CreationDate,2024-12-04T22:19:12+00:00
; #@! TF.GenerationSoftware,Kicad,Pcbnew,8.0.6
; #@! TF.FileFunction,NonPlated,1,2,NPTH
FMAT,2
INCH
; #@! TA.AperFunction,NonPlated,NPTH,ComponentDrill
T1C0.0354
; #@! TA.AperFunction,NonPlated,NPTH,ComponentDrill
T2C0.0866
; #@! TA.AperFunction,NonPlated,NPTH,ComponentDrill
T3C0.1181
; #@! TA.AperFunction,NonPlated,NPTH,ComponentDrill
T4C0.1969
%
G90
G05
T1
X10.7298Y-5.6954
X10.7298Y-5.8135
T2
X6.2406Y-5.2032
X6.2406Y-5.9513
X9.2721Y-4.8686
X9.2721Y-5.6166
T3
X5.6698Y-5.4296
X5.6698Y-6.1777
X5.6698Y-4.6816
X5.8666Y-5.343
X5.8666Y-6.091
X5.8666Y-4.595
X6.0635Y-5.4296
X6.0635Y-6.1777
X6.0635Y-4.6816
X6.4178Y-5.4296
X6.4178Y-6.1777
X6.4178Y-4.6816
X6.6147Y-5.343
X6.6147Y-6.091
X6.6147Y-4.595
X6.8115Y-5.4296
X6.8115Y-6.1777
X6.8115Y-4.6816
X7.1658Y-5.2328
X7.1658Y-4.4847
X7.1658Y-5.9808
X7.3627Y-5.1462
X7.3627Y-4.3981
X7.3627Y-5.8942
X7.5595Y-5.2328
X7.5595Y-4.4847
X7.5595Y-5.9808
X7.9139Y-4.091
X7.9139Y-4.8391
X7.9139Y-5.5871
X8.1107Y-4.0044
X8.1107Y-4.7525
X8.1107Y-5.5005
X8.3076Y-4.091
X8.3076Y-4.8391
X8.3076Y-5.5871
X8.6619Y-5.0359
X8.6619Y-4.2879
X8.6619Y-5.784
X8.7856Y-6.6042
X8.8588Y-4.9493
X8.8588Y-4.2013
X8.8588Y-5.6973
X8.9981Y-6.5715
X9.0556Y-5.0359
X9.0556Y-4.2879
X9.0556Y-5.784
X9.1659Y-6.7061
X9.4099Y-5.1344
X9.4099Y-5.8824
X9.4099Y-4.3863
X9.6068Y-5.0477
X9.6068Y-5.7958
X9.6068Y-4.2997
X9.6263Y-6.8923
X9.8036Y-5.1344
X9.8036Y-5.8824
X9.8036Y-4.3863
X9.8401Y-6.9157
X9.9673Y-7.0892
T4
X5.8666Y-5.5773
X5.8666Y-6.3253
X5.8666Y-4.8292
X6.6147Y-5.5773
X6.6147Y-6.3253
X6.6147Y-4.8292
X7.3627Y-5.3804
X7.3627Y-4.6324
X7.3627Y-6.1284
X8.1107Y-4.2387
X8.1107Y-4.9867
X8.1107Y-5.7347
X8.8588Y-5.1836
X8.8588Y-4.4355
X8.8588Y-5.9316
X8.9375Y-6.7977
X9.6068Y-5.282
X9.6068Y-6.03
X9.6068Y-4.534
X9.723Y-7.1186
M30
