0
SECTION
2
HEADER
9
$INSUNITS
70
4
0
ENDSEC
0
SECTION
2
TABLES
0
TABLE
2
LTYPE
0
LTYPE
72
65
70
64
2
CONTINUOUS
3
______
73
0
40
0
0
ENDTAB
0
TABLE
2
LAYER
0
ENDTAB
0
ENDSEC
0
SECTION
2
ENTITIES
0
LINE
8
0
10
225.6
20
-92.991614
11
225.6
21
-45
0
ARC
8
0
10
224.6
20
-45
40
1
50
0
51
90
0
LINE
8
0
10
186.5
20
-44
11
224.6
21
-44
0
LINE
8
0
10
186.5
20
-44
11
186.5
21
-42.5
0
ARC
8
0
10
185.5
20
-42.5
40
1
50
0
51
90
0
LINE
8
0
10
185.5
20
-41.5
11
167.5
21
-41.5
0
LINE
8
0
10
167.5
20
-41.5
11
167.5
21
-37.5
0
ARC
8
0
10
166.5
20
-37.5
40
1
50
0
51
90
0
LINE
8
0
10
166.5
20
-36.5
11
147.5
21
-36.5
0
ARC
8
0
10
147.5
20
-37.5
40
1
50
90
51
180
0
LINE
8
0
10
146.5
20
-37.5
11
146.5
21
-46.5
0
LINE
8
0
10
146.5
20
-46.5
11
128.5
21
-46.5
0
ARC
8
0
10
128.5
20
-47.5
40
1
50
90
51
180
0
LINE
8
0
10
127.5
20
-47.5
11
127.5
21
-51.5
0
LINE
8
0
10
90.5
20
-51.5
11
127.5
21
-51.5
0
ARC
8
0
10
90.5
20
-52.5
40
1
50
90
51
180
0
LINE
8
0
10
89.5
20
-109.5
11
89.5
21
-52.5
0
ARC
8
0
10
90.5
20
-109.5
40
1
50
180
51
270
0
LINE
8
0
10
90.5
20
-110.5
11
128.5
21
-110.5
0
ARC
8
0
10
128.5
20
-109.5
40
1
50
270
51
300.3099067
0
LINE
8
0
10
129.0046769
20
-110.3633083
11
186.8432795
21
-125.8611152
0
LINE
8
0
10
186.8432795
20
-125.8611152
11
200.9279082
21
-133.9928794
0
ARC
8
0
10
201.4279082
20
-133.126854
40
1
50
239.9999999
51
329.9998746
0
LINE
8
0
10
202.2939325
20
-133.6268559
11
202.3189326
21
-133.5835547
0
LINE
8
0
10
202.3189337
20
-133.5835528
11
225.4660254
21
-93.491614
0
ARC
8
0
10
224.6
20
-92.991614
40
1
50
329.9999999
51
0
0
LINE
8
0
10
90.75
20
-109.25
11
109.25
21
-109.25
0
LINE
8
0
10
109.25
20
-109.25
11
109.25
21
-90.75
0
LINE
8
0
10
109.25
20
-90.75
11
90.75
21
-90.75
0
LINE
8
0
10
90.75
20
-90.75
11
90.75
21
-109.25
0
LINE
8
0
10
90.75
20
-90.25
11
109.25
21
-90.25
0
LINE
8
0
10
109.25
20
-90.25
11
109.25
21
-71.75
0
LINE
8
0
10
109.25
20
-71.75
11
90.75
21
-71.75
0
LINE
8
0
10
90.75
20
-71.75
11
90.75
21
-90.25
0
LINE
8
0
10
90.75
20
-71.25
11
109.25
21
-71.25
0
LINE
8
0
10
109.25
20
-71.25
11
109.25
21
-52.75
0
LINE
8
0
10
109.25
20
-52.75
11
90.75
21
-52.75
0
LINE
8
0
10
90.75
20
-52.75
11
90.75
21
-71.25
0
LINE
8
0
10
109.75
20
-109.25
11
128.25
21
-109.25
0
LINE
8
0
10
128.25
20
-109.25
11
128.25
21
-90.75
0
LINE
8
0
10
128.25
20
-90.75
11
109.75
21
-90.75
0
LINE
8
0
10
109.75
20
-90.75
11
109.75
21
-109.25
0
LINE
8
0
10
109.75
20
-90.25
11
128.25
21
-90.25
0
LINE
8
0
10
128.25
20
-90.25
11
128.25
21
-71.75
0
LINE
8
0
10
128.25
20
-71.75
11
109.75
21
-71.75
0
LINE
8
0
10
109.75
20
-71.75
11
109.75
21
-90.25
0
LINE
8
0
10
109.75
20
-71.25
11
128.25
21
-71.25
0
LINE
8
0
10
128.25
20
-71.25
11
128.25
21
-52.75
0
LINE
8
0
10
128.25
20
-52.75
11
109.75
21
-52.75
0
LINE
8
0
10
109.75
20
-52.75
11
109.75
21
-71.25
0
LINE
8
0
10
128.75
20
-104.25
11
147.25
21
-104.25
0
LINE
8
0
10
147.25
20
-104.25
11
147.25
21
-85.75
0
LINE
8
0
10
147.25
20
-85.75
11
128.75
21
-85.75
0
LINE
8
0
10
128.75
20
-85.75
11
128.75
21
-104.25
0
LINE
8
0
10
128.75
20
-85.25
11
147.25
21
-85.25
0
LINE
8
0
10
147.25
20
-85.25
11
147.25
21
-66.75
0
LINE
8
0
10
147.25
20
-66.75
11
128.75
21
-66.75
0
LINE
8
0
10
128.75
20
-66.75
11
128.75
21
-85.25
0
LINE
8
0
10
128.75
20
-66.25
11
147.25
21
-66.25
0
LINE
8
0
10
147.25
20
-66.25
11
147.25
21
-47.75
0
LINE
8
0
10
147.25
20
-47.75
11
128.75
21
-47.75
0
LINE
8
0
10
128.75
20
-47.75
11
128.75
21
-66.25
0
LINE
8
0
10
147.75
20
-94.25
11
166.25
21
-94.25
0
LINE
8
0
10
166.25
20
-94.25
11
166.25
21
-75.75
0
LINE
8
0
10
166.25
20
-75.75
11
147.75
21
-75.75
0
LINE
8
0
10
147.75
20
-75.75
11
147.75
21
-94.25
0
LINE
8
0
10
147.75
20
-75.25
11
166.25
21
-75.25
0
LINE
8
0
10
166.25
20
-75.25
11
166.25
21
-56.75
0
LINE
8
0
10
166.25
20
-56.75
11
147.75
21
-56.75
0
LINE
8
0
10
147.75
20
-56.75
11
147.75
21
-75.25
0
LINE
8
0
10
147.75
20
-56.25
11
166.25
21
-56.25
0
LINE
8
0
10
166.25
20
-56.25
11
166.25
21
-37.75
0
LINE
8
0
10
166.25
20
-37.75
11
147.75
21
-37.75
0
LINE
8
0
10
147.75
20
-37.75
11
147.75
21
-56.25
0
LINE
8
0
10
166.75
20
-99.25
11
185.25
21
-99.25
0
LINE
8
0
10
185.25
20
-99.25
11
185.25
21
-80.75
0
LINE
8
0
10
185.25
20
-80.75
11
166.75
21
-80.75
0
LINE
8
0
10
166.75
20
-80.75
11
166.75
21
-99.25
0
LINE
8
0
10
166.75
20
-80.25
11
185.25
21
-80.25
0
LINE
8
0
10
185.25
20
-80.25
11
185.25
21
-61.75
0
LINE
8
0
10
185.25
20
-61.75
11
166.75
21
-61.75
0
LINE
8
0
10
166.75
20
-61.75
11
166.75
21
-80.25
0
LINE
8
0
10
166.75
20
-61.25
11
185.25
21
-61.25
0
LINE
8
0
10
185.25
20
-61.25
11
185.25
21
-42.75
0
LINE
8
0
10
185.25
20
-42.75
11
166.75
21
-42.75
0
LINE
8
0
10
166.75
20
-42.75
11
166.75
21
-61.25
0
LINE
8
0
10
185.75
20
-101.75
11
204.25
21
-101.75
0
LINE
8
0
10
204.25
20
-101.75
11
204.25
21
-83.25
0
LINE
8
0
10
204.25
20
-83.25
11
185.75
21
-83.25
0
LINE
8
0
10
185.75
20
-83.25
11
185.75
21
-101.75
0
LINE
8
0
10
185.75
20
-82.75
11
204.25
21
-82.75
0
LINE
8
0
10
204.25
20
-82.75
11
204.25
21
-64.25
0
LINE
8
0
10
204.25
20
-64.25
11
185.75
21
-64.25
0
LINE
8
0
10
185.75
20
-64.25
11
185.75
21
-82.75
0
LINE
8
0
10
185.75
20
-63.75
11
204.25
21
-63.75
0
LINE
8
0
10
204.25
20
-63.75
11
204.25
21
-45.25
0
LINE
8
0
10
204.25
20
-45.25
11
185.75
21
-45.25
0
LINE
8
0
10
185.75
20
-45.25
11
185.75
21
-63.75
0
LINE
8
0
10
166.6711099
20
-118.5407377
11
184.5407377
21
-123.3288901
0
LINE
8
0
10
184.5407377
20
-123.3288901
11
189.3288901
21
-105.4592623
0
LINE
8
0
10
189.3288901
20
-105.4592623
11
171.4592623
21
-100.6711099
0
LINE
8
0
10
171.4592623
20
-100.6711099
11
166.6711099
21
-118.5407377
0
LINE
8
0
10
185.3149319
20
-123.5353477
11
201.3364019
21
-132.7853477
0
LINE
8
0
10
201.3364019
20
-132.7853477
11
210.5864019
21
-116.7638777
0
LINE
8
0
10
210.5864019
20
-116.7638777
11
194.5649319
21
-107.5138777
0
LINE
8
0
10
194.5649319
20
-107.5138777
11
185.3149319
21
-123.5353477
0
LINE
8
0
10
205.85
20
-70.75
11
224.35
21
-70.75
0
LINE
8
0
10
224.35
20
-70.75
11
224.35
21
-52.25
0
LINE
8
0
10
224.35
20
-52.25
11
205.85
21
-52.25
0
LINE
8
0
10
205.85
20
-52.25
11
205.85
21
-70.75
0
ENDSEC
0
EOF