0
SECTION
2
HEADER
9
$INSUNITS
70
4
0
ENDSEC
0
SECTION
2
TABLES
0
TABLE
2
LTYPE
0
LTYPE
72
65
70
64
2
CONTINUOUS
3
______
73
0
40
0
0
ENDTAB
0
TABLE
2
LAYER
0
ENDTAB
0
ENDSEC
0
SECTION
2
ENTITIES
0
LINE
8
0
10
90
20
-110.5
11
128
21
-110.5
0
ARC
8
0
10
128
20
-109.5
40
1
50
270
51
360
0
LINE
8
0
10
129
20
-109.5
11
129
21
-105.5
0
LINE
8
0
10
129
20
-105.5
11
146
21
-105.5
0
ARC
8
0
10
146
20
-104.5
40
1
50
270
51
360
0
LINE
8
0
10
147
20
-104.5
11
147
21
-95.5
0
LINE
8
0
10
147
20
-95.5
11
161
21
-95.5
0
LINE
8
0
10
161
20
-95.5
11
161
21
-99.5
0
ARC
8
0
10
162
20
-99.5
40
1
50
180
51
270
0
LINE
8
0
10
162
20
-100.5
11
165.1574794
21
-100.5
0
LINE
8
0
10
165.1574794
20
-100.5
11
160.9160349
21
-116.3292859
0
ARC
8
0
10
161.8819608
20
-116.5881049
40
1
50
165.0000029
51
255
0
LINE
8
0
10
161.6231418
20
-117.5540307
11
179.8697147
21
-122.4431852
0
LINE
8
0
10
179.8697147
20
-122.4431852
11
196.3949951
21
-131.9840603
0
ARC
8
0
10
196.8949951
20
-131.1180349
40
1
50
239.9999999
51
329.9999991
0
LINE
8
0
10
197.7610205
20
-131.6180349
11
207.2610205
21
-115.1635523
0
ARC
8
0
10
206.3949951
20
-114.6635523
40
1
50
329.9999999
51
419.9999999
0
LINE
8
0
10
206.8949951
20
-113.7975269
11
189.5744871
21
-103.7975269
0
ARC
8
0
10
189.0744871
20
-104.6635523
40
1
50
59.9999999
51
149.9999999
0
LINE
8
0
10
188.2084617
20
-104.1635523
11
185.8637032
21
-108.2247932
0
LINE
8
0
10
185.8637032
20
-108.2247932
11
187.083965
21
-103.6707142
0
ARC
8
0
10
186.1180392
20
-103.4118951
40
1
50
344.9999999
51
384.323937
0
LINE
8
0
10
187.0292705
20
-103
11
200
21
-103
0
ARC
8
0
10
200
20
-102
40
1
50
270
51
360
0
LINE
8
0
10
201
20
-102
11
201
21
-49
0
ARC
8
0
10
200
20
-49
40
1
50
0
51
90
0
LINE
8
0
10
200
20
-48
11
183
21
-48
0
LINE
8
0
10
183
20
-48
11
183
21
-46.5
0
ARC
8
0
10
182
20
-46.5
40
1
50
0
51
90
0
LINE
8
0
10
182
20
-45.5
11
165
21
-45.5
0
LINE
8
0
10
165
20
-45.5
11
165
21
-41.5
0
ARC
8
0
10
164
20
-41.5
40
1
50
0
51
90
0
LINE
8
0
10
164
20
-40.5
11
144
21
-40.5
0
ARC
8
0
10
144
20
-41.5
40
1
50
90
51
180
0
LINE
8
0
10
143
20
-41.5
11
143
21
-50.5
0
LINE
8
0
10
143
20
-50.5
11
126
21
-50.5
0
ARC
8
0
10
126
20
-51.5
40
1
50
90
51
180
0
LINE
8
0
10
125
20
-51.5
11
125
21
-55.5
0
LINE
8
0
10
90
20
-55.5
11
125
21
-55.5
0
ARC
8
0
10
90
20
-56.5
40
1
50
90
51
180
0
LINE
8
0
10
89
20
-109.5
11
89
21
-56.5
0
ARC
8
0
10
90
20
-109.5
40
1
50
180
51
270
0
LINE
8
0
10
91.25
20
-108.25
11
108.75
21
-108.25
0
LINE
8
0
10
108.75
20
-108.25
11
108.75
21
-91.75
0
LINE
8
0
10
108.75
20
-91.75
11
91.25
21
-91.75
0
LINE
8
0
10
91.25
20
-91.75
11
91.25
21
-108.25
0
LINE
8
0
10
91.25
20
-91.25
11
108.75
21
-91.25
0
LINE
8
0
10
108.75
20
-91.25
11
108.75
21
-74.75
0
LINE
8
0
10
108.75
20
-74.75
11
91.25
21
-74.75
0
LINE
8
0
10
91.25
20
-74.75
11
91.25
21
-91.25
0
LINE
8
0
10
91.25
20
-74.25
11
108.75
21
-74.25
0
LINE
8
0
10
108.75
20
-74.25
11
108.75
21
-57.75
0
LINE
8
0
10
108.75
20
-57.75
11
91.25
21
-57.75
0
LINE
8
0
10
91.25
20
-57.75
11
91.25
21
-74.25
0
LINE
8
0
10
109.25
20
-108.25
11
126.75
21
-108.25
0
LINE
8
0
10
126.75
20
-108.25
11
126.75
21
-91.75
0
LINE
8
0
10
126.75
20
-91.75
11
109.25
21
-91.75
0
LINE
8
0
10
109.25
20
-91.75
11
109.25
21
-108.25
0
LINE
8
0
10
109.25
20
-91.25
11
126.75
21
-91.25
0
LINE
8
0
10
126.75
20
-91.25
11
126.75
21
-74.75
0
LINE
8
0
10
126.75
20
-74.75
11
109.25
21
-74.75
0
LINE
8
0
10
109.25
20
-74.75
11
109.25
21
-91.25
0
LINE
8
0
10
109.25
20
-74.25
11
126.75
21
-74.25
0
LINE
8
0
10
126.75
20
-74.25
11
126.75
21
-57.75
0
LINE
8
0
10
126.75
20
-57.75
11
109.25
21
-57.75
0
LINE
8
0
10
109.25
20
-57.75
11
109.25
21
-74.25
0
LINE
8
0
10
127.25
20
-103.25
11
144.75
21
-103.25
0
LINE
8
0
10
144.75
20
-103.25
11
144.75
21
-86.75
0
LINE
8
0
10
144.75
20
-86.75
11
127.25
21
-86.75
0
LINE
8
0
10
127.25
20
-86.75
11
127.25
21
-103.25
0
LINE
8
0
10
127.25
20
-86.25
11
144.75
21
-86.25
0
LINE
8
0
10
144.75
20
-86.25
11
144.75
21
-69.75
0
LINE
8
0
10
144.75
20
-69.75
11
127.25
21
-69.75
0
LINE
8
0
10
127.25
20
-69.75
11
127.25
21
-86.25
0
LINE
8
0
10
127.25
20
-69.25
11
144.75
21
-69.25
0
LINE
8
0
10
144.75
20
-69.25
11
144.75
21
-52.75
0
LINE
8
0
10
144.75
20
-52.75
11
127.25
21
-52.75
0
LINE
8
0
10
127.25
20
-52.75
11
127.25
21
-69.25
0
LINE
8
0
10
145.25
20
-93.25
11
162.75
21
-93.25
0
LINE
8
0
10
162.75
20
-93.25
11
162.75
21
-76.75
0
LINE
8
0
10
162.75
20
-76.75
11
145.25
21
-76.75
0
LINE
8
0
10
145.25
20
-76.75
11
145.25
21
-93.25
0
LINE
8
0
10
145.25
20
-76.25
11
162.75
21
-76.25
0
LINE
8
0
10
162.75
20
-76.25
11
162.75
21
-59.75
0
LINE
8
0
10
162.75
20
-59.75
11
145.25
21
-59.75
0
LINE
8
0
10
145.25
20
-59.75
11
145.25
21
-76.25
0
LINE
8
0
10
145.25
20
-59.25
11
162.75
21
-59.25
0
LINE
8
0
10
162.75
20
-59.25
11
162.75
21
-42.75
0
LINE
8
0
10
162.75
20
-42.75
11
145.25
21
-42.75
0
LINE
8
0
10
145.25
20
-42.75
11
145.25
21
-59.25
0
LINE
8
0
10
163.25
20
-98.25
11
180.75
21
-98.25
0
LINE
8
0
10
180.75
20
-98.25
11
180.75
21
-81.75
0
LINE
8
0
10
180.75
20
-81.75
11
163.25
21
-81.75
0
LINE
8
0
10
163.25
20
-81.75
11
163.25
21
-98.25
0
LINE
8
0
10
163.25
20
-81.25
11
180.75
21
-81.25
0
LINE
8
0
10
180.75
20
-81.25
11
180.75
21
-64.75
0
LINE
8
0
10
180.75
20
-64.75
11
163.25
21
-64.75
0
LINE
8
0
10
163.25
20
-64.75
11
163.25
21
-81.25
0
LINE
8
0
10
163.25
20
-64.25
11
180.75
21
-64.25
0
LINE
8
0
10
180.75
20
-64.25
11
180.75
21
-47.75
0
LINE
8
0
10
180.75
20
-47.75
11
163.25
21
-47.75
0
LINE
8
0
10
163.25
20
-47.75
11
163.25
21
-64.25
0
LINE
8
0
10
181.25
20
-100.75
11
198.75
21
-100.75
0
LINE
8
0
10
198.75
20
-100.75
11
198.75
21
-84.25
0
LINE
8
0
10
198.75
20
-84.25
11
181.25
21
-84.25
0
LINE
8
0
10
181.25
20
-84.25
11
181.25
21
-100.75
0
LINE
8
0
10
181.25
20
-83.75
11
198.75
21
-83.75
0
LINE
8
0
10
198.75
20
-83.75
11
198.75
21
-67.25
0
LINE
8
0
10
198.75
20
-67.25
11
181.25
21
-67.25
0
LINE
8
0
10
181.25
20
-67.25
11
181.25
21
-83.75
0
LINE
8
0
10
181.25
20
-66.75
11
198.75
21
-66.75
0
LINE
8
0
10
198.75
20
-66.75
11
198.75
21
-50.25
0
LINE
8
0
10
198.75
20
-50.25
11
181.25
21
-50.25
0
LINE
8
0
10
181.25
20
-50.25
11
181.25
21
-66.75
0
LINE
8
0
10
163.4128919
20
-115.7042214
11
180.3165939
21
-120.2335547
0
LINE
8
0
10
180.3165939
20
-120.2335547
11
184.5871081
21
-104.2957786
0
LINE
8
0
10
184.5871081
20
-104.2957786
11
167.6834061
21
-99.7664453
0
LINE
8
0
10
167.6834061
20
-99.7664453
11
163.4128919
21
-115.7042214
0
LINE
8
0
10
181.2820188
20
-120.6605032
11
196.4374634
21
-129.4105032
0
LINE
8
0
10
196.4374634
20
-129.4105032
11
204.6874634
21
-115.121084
0
LINE
8
0
10
204.6874634
20
-115.121084
11
189.5320188
21
-106.371084
0
LINE
8
0
10
189.5320188
20
-106.371084
11
181.2820188
21
-120.6605032
0
ENDSEC
0
EOF