0
SECTION
2
HEADER
9
$INSUNITS
70
4
0
ENDSEC
0
SECTION
2
TABLES
0
TABLE
2
LTYPE
0
LTYPE
72
65
70
64
2
CONTINUOUS
3
______
73
0
40
0
0
ENDTAB
0
TABLE
2
LAYER
0
ENDTAB
0
ENDSEC
0
SECTION
2
ENTITIES
0
LINE
8
0
10
90
20
-110.5
11
128
21
-110.5
0
ARC
8
0
10
128
20
-109.5
40
1
50
270
51
360
0
LINE
8
0
10
129
20
-109.5
11
129
21
-105.5
0
LINE
8
0
10
129
20
-105.5
11
146
21
-105.5
0
ARC
8
0
10
146
20
-104.5
40
1
50
270
51
360
0
LINE
8
0
10
147
20
-104.5
11
147
21
-95.5
0
LINE
8
0
10
147
20
-95.5
11
161
21
-95.5
0
LINE
8
0
10
161
20
-95.5
11
161
21
-99.5
0
ARC
8
0
10
162
20
-99.5
40
1
50
180
51
270
0
LINE
8
0
10
162
20
-100.5
11
165.1574794
21
-100.5
0
LINE
8
0
10
165.1574794
20
-100.5
11
160.9160349
21
-116.3292859
0
ARC
8
0
10
161.8819608
20
-116.5881049
40
1
50
165.0000029
51
255
0
LINE
8
0
10
161.6231418
20
-117.5540307
11
179.8697147
21
-122.4431852
0
LINE
8
0
10
179.8697147
20
-122.4431852
11
196.3949951
21
-131.9840603
0
ARC
8
0
10
196.8949951
20
-131.1180349
40
1
50
239.9999999
51
329.9999991
0
LINE
8
0
10
197.7610205
20
-131.6180349
11
207.2610205
21
-115.1635523
0
ARC
8
0
10
206.3949951
20
-114.6635523
40
1
50
329.9999999
51
419.9999999
0
LINE
8
0
10
206.8949951
20
-113.7975269
11
189.5744871
21
-103.7975269
0
ARC
8
0
10
189.0744871
20
-104.6635523
40
1
50
59.9999999
51
149.9999999
0
LINE
8
0
10
188.2084617
20
-104.1635523
11
185.8637032
21
-108.2247932
0
LINE
8
0
10
185.8637032
20
-108.2247932
11
187.083965
21
-103.6707142
0
ARC
8
0
10
186.1180392
20
-103.4118951
40
1
50
344.9999999
51
384.323937
0
LINE
8
0
10
187.0292705
20
-103
11
200
21
-103
0
ARC
8
0
10
200
20
-102
40
1
50
270
51
360
0
LINE
8
0
10
201
20
-102
11
201
21
-49
0
ARC
8
0
10
200
20
-49
40
1
50
0
51
90
0
LINE
8
0
10
200
20
-48
11
183
21
-48
0
LINE
8
0
10
183
20
-48
11
183
21
-46.5
0
ARC
8
0
10
182
20
-46.5
40
1
50
0
51
90
0
LINE
8
0
10
182
20
-45.5
11
165
21
-45.5
0
LINE
8
0
10
165
20
-45.5
11
165
21
-41.5
0
ARC
8
0
10
164
20
-41.5
40
1
50
0
51
90
0
LINE
8
0
10
164
20
-40.5
11
144
21
-40.5
0
ARC
8
0
10
144
20
-41.5
40
1
50
90
51
180
0
LINE
8
0
10
143
20
-41.5
11
143
21
-50.5
0
LINE
8
0
10
143
20
-50.5
11
126
21
-50.5
0
ARC
8
0
10
126
20
-51.5
40
1
50
90
51
180
0
LINE
8
0
10
125
20
-51.5
11
125
21
-55.5
0
LINE
8
0
10
90
20
-55.5
11
125
21
-55.5
0
ARC
8
0
10
90
20
-56.5
40
1
50
90
51
180
0
LINE
8
0
10
89
20
-109.5
11
89
21
-56.5
0
ARC
8
0
10
90
20
-109.5
40
1
50
180
51
270
0
ENDSEC
0
EOF