0
SECTION
2
HEADER
9
$INSUNITS
70
4
0
ENDSEC
0
SECTION
2
TABLES
0
TABLE
2
LTYPE
0
LTYPE
72
65
70
64
2
CONTINUOUS
3
______
73
0
40
0
0
ENDTAB
0
TABLE
2
LAYER
0
ENDTAB
0
ENDSEC
0
SECTION
2
ENTITIES
0
LINE
8
0
10
90
20
-109.5
11
128
21
-109.5
0
LINE
8
0
10
90
20
-109.5
11
90
21
-56.5
0
LINE
8
0
10
90
20
-56.5
11
126
21
-56.5
0
LINE
8
0
10
128
20
-109.5
11
128
21
-104.5
0
LINE
8
0
10
128
20
-104.5
11
146
21
-104.5
0
LINE
8
0
10
146
20
-104.5
11
146
21
-94.5
0
LINE
8
0
10
144
20
-51.5
11
126
21
-51.5
0
LINE
8
0
10
126
20
-51.5
11
126
21
-56.5
0
LINE
8
0
10
146
20
-94.5
11
162
21
-94.5
0
LINE
8
0
10
164
20
-46.5
11
164
21
-41.5
0
LINE
8
0
10
164
20
-41.5
11
144
21
-41.5
0
LINE
8
0
10
144
20
-41.5
11
144
21
-51.5
0
LINE
8
0
10
162
20
-99.5
11
166.4607047
21
-99.5
0
LINE
8
0
10
171.5186479
20
-99.5
11
180
21
-99.5
0
LINE
8
0
10
162
20
-94.5
11
162
21
-99.5
0
LINE
8
0
10
182
20
-49
11
182
21
-46.5
0
LINE
8
0
10
182
20
-46.5
11
164
21
-46.5
0
LINE
8
0
10
180.848775
20
-102
11
200
21
-102
0
LINE
8
0
10
200
20
-102
11
200
21
-49
0
LINE
8
0
10
180
20
-99.5
11
180
21
-101.7725714
0
LINE
8
0
10
200
20
-49
11
182
21
-49
0
LINE
8
0
10
161.8819608
20
-116.5881049
11
180.2557004
21
-121.5113336
0
LINE
8
0
10
182.9318516
20
-115.3029091
11
186.1180392
21
-103.4118951
0
LINE
8
0
10
186.1180392
20
-103.4118951
11
180.848775
21
-102
0
LINE
8
0
10
180
20
-101.7725714
11
171.5186479
21
-99.5
0
LINE
8
0
10
166.4607047
20
-99.5
11
161.8819608
21
-116.5881049
0
LINE
8
0
10
180.2557004
20
-121.5113336
11
196.8949951
21
-131.1180349
0
LINE
8
0
10
196.8949951
20
-131.1180349
11
206.3949951
21
-114.6635523
0
LINE
8
0
10
206.3949951
20
-114.6635523
11
189.0744871
21
-104.6635523
0
LINE
8
0
10
189.0744871
20
-104.6635523
11
182.9318516
21
-115.3029091
0
ENDSEC
0
EOF